<svg width="41" height="41" viewBox="0 0 41 41" fill="none" xmlns="http://www.w3.org/2000/svg">
<g clip-path="url(#clip0_68_2738)">
<path d="M26.7411 24.5644C25.7108 25.4729 24.3503 25.9764 22.8574 25.9764C19.5664 25.9764 17.1496 23.6061 17.1496 20.3516C17.1496 17.0972 19.4895 14.8266 22.8574 14.8266C24.3243 14.8266 25.7108 15.3058 26.7671 16.2142L27.4852 16.8199L30.6757 13.6919L29.8772 12.9853C27.9998 11.3227 25.5073 10.3899 22.8562 10.3899C16.9414 10.3899 12.646 14.576 12.646 20.3272C12.646 26.0541 17.0443 30.3899 22.8562 30.3899C25.557 30.3899 28.0755 29.4571 29.9292 27.7678L30.7005 27.0612L27.4604 23.9356L26.7411 24.5644Z" fill="white"/>
<path d="M22.7027 17.0471C24.5931 17.0471 26.125 18.5473 26.125 20.4025C26.125 22.2554 24.5931 23.7579 22.7027 23.7579C20.8135 23.7579 19.2827 22.2554 19.2827 20.4025C19.2839 18.5485 20.8147 17.0471 22.7027 17.0471Z" fill="white"/>
</g>
<defs>
<clipPath id="clip0_68_2738">
<rect width="40" height="40" fill="white" transform="translate(0.97998 0.389893)"/>
</clipPath>
</defs>
</svg>
