<svg width="41" height="41" viewBox="0 0 41 41" fill="none" xmlns="http://www.w3.org/2000/svg">
<g clip-path="url(#clip0_68_2708)">
<path d="M19.0561 20.1677C19.0561 20.1677 20.9491 20.0237 20.9491 17.7566C20.9491 15.4913 19.6652 14.3747 17.7028 14.3747L10.98 14.364V26.8826H17.8591C17.8591 26.8826 21.2987 26.9916 21.2987 23.1271C21.2987 23.1271 21.5513 20.1677 19.0561 20.1677ZM13.4815 16.2418H16.9211C16.9211 16.2418 18.098 16.2612 18.098 17.7885C18.098 19.3715 16.9211 19.3715 16.9211 19.3715H13.4815V16.2418ZM17.2338 25.0048H13.4815V21.2493H17.2338C17.2338 21.2493 19.1099 21.2687 19.1099 23.1271C19.1099 24.9854 17.5039 25.0048 17.2338 25.0048Z" fill="white"/>
<path d="M26.6136 17.4939C21.9152 17.4939 21.9233 22.1884 21.9233 22.1884C21.9233 22.1884 21.6106 26.8829 26.6136 26.8829C26.6136 26.8829 30.9912 26.8829 30.9912 23.1273H28.4898C28.4898 23.1273 28.4897 25.0051 26.6136 25.0051C26.6136 25.0051 24.7375 25.0051 24.7375 22.5014C24.7375 22.5014 29.7405 22.5014 30.9912 22.5014C30.9912 21.2495 30.9912 17.4939 26.6136 17.4939ZM24.7375 21.2495C24.7375 21.2495 24.6962 19.3717 26.6136 19.3717C28.5304 19.3717 28.4898 21.2495 28.4898 21.2495H24.7375Z" fill="white"/>
<path d="M29.1158 15.616H24.1128V16.8678H29.1158V15.616Z" fill="white"/>
</g>
<defs>
<clipPath id="clip0_68_2708">
<rect width="40" height="40" fill="white" transform="translate(0.97998 0.389893)"/>
</clipPath>
</defs>
</svg>
