<svg width="12" height="185" viewBox="0 0 12 185" fill="none" xmlns="http://www.w3.org/2000/svg">
<path d="M4.26474 0.637402L4.26474 1.72565C2.92775 1.80338 1.99497 3.00045 1.97942 4.3219C1.96388 5.48788 2.66346 6.24965 3.64289 6.24965C4.74668 6.24965 5.01097 5.22359 5.44627 4.10425C6.00594 2.62734 6.5967 0.746227 8.50891 0.746227C10.0169 0.746227 11.2451 1.91221 11.2451 3.85551C11.2451 5.84544 9.95472 6.98033 8.02697 6.94924L8.02697 5.86099C9.50388 5.8299 10.0946 4.89711 10.0946 3.79332C10.0946 2.87608 9.65934 1.95885 8.57109 1.95885C7.37402 1.95885 7.18746 3.016 6.61225 4.39963C6.09922 5.62779 5.61728 7.46227 3.64289 7.46227C2.04161 7.46227 0.828989 6.45175 0.828989 4.44627C0.82899 1.35254 3.50297 0.435299 4.26474 0.637402ZM4.35802 17.8866C2.18153 17.5757 0.844535 15.8656 0.844535 13.6735C0.844536 10.9374 2.88111 8.83861 6.05258 8.83861C9.20849 8.83861 11.2606 10.9374 11.2606 13.6735C11.2606 15.8656 9.90808 17.5757 7.71604 17.9022L7.71604 16.7828C9.25513 16.3475 10.1102 15.1038 10.1102 13.6735C10.1102 11.7769 8.66437 10.0512 6.05258 10.0512C3.42524 10.0512 1.97942 11.7769 1.97942 13.6735C1.97942 15.0883 2.81893 16.332 4.35802 16.7673L4.35802 17.8866ZM5.66392 25.2345C5.55509 26.587 5.13534 27.4421 3.51851 27.4421L0.999999 27.4421L0.999999 26.245L3.51851 26.245C4.76223 26.2294 5.13534 25.2189 5.13534 23.9908L5.13534 21.1302L0.999999 21.1302L0.999999 19.9176L11.1052 19.9176L11.1052 24.2861C11.1052 26.3694 10.1413 27.5975 8.22907 27.5975C6.67443 27.5975 5.89711 26.6181 5.66392 25.2345ZM9.92363 21.1302L6.30132 21.1302L6.30132 24.2861L5.69501 24.2861L6.30132 24.2861C6.30132 25.5298 7.09418 26.3849 8.22907 26.3849C9.33286 26.4004 9.92363 25.5454 9.92363 24.2861L9.92363 21.1302ZM0.844535 34.2322C0.844535 31.5116 2.88111 29.304 6.05258 29.304C9.20849 29.304 11.2606 31.5116 11.2606 34.2322C11.2606 36.9528 9.20849 39.1448 6.05258 39.1448C2.88111 39.1448 0.844534 36.9528 0.844535 34.2322ZM2.01051 34.2322C2.01051 36.1288 3.42524 37.9478 6.05258 37.9478C8.64882 37.9478 10.0791 36.1288 10.0791 34.2322C10.0791 32.3355 8.64882 30.5166 6.05258 30.5166C3.42524 30.5166 2.01051 32.3355 2.01051 34.2322ZM2.13488 42.4002L2.13488 47.9503L0.984452 47.9503L0.984452 42.307L0.999998 42.307L0.999998 41.1876L11.1052 41.1876L11.1052 42.4002L2.13488 42.4002ZM2.13488 51.1906L2.13488 56.7407L0.984451 56.7407L0.984451 51.0973L0.999998 51.0973L0.999998 49.978L11.1052 49.978L11.1052 51.1906L2.13488 51.1906Z" fill="#FEFEFE"/>
<line x1="2.5" y1="63" x2="2.49999" y2="185" stroke="white"/>
</svg>
