<svg width="40" height="40" viewBox="0 0 40 40" fill="none" xmlns="http://www.w3.org/2000/svg">
<path d="M20.5 17.152C19.8378 17.152 19.1905 17.3484 18.64 17.7162C18.0894 18.0841 17.6603 18.607 17.4069 19.2188C17.1534 19.8305 17.0871 20.5037 17.2163 21.1532C17.3455 21.8026 17.6644 22.3992 18.1326 22.8674C18.6008 23.3356 19.1974 23.6545 19.8468 23.7837C20.4963 23.9129 21.1695 23.8466 21.7812 23.5931C22.393 23.3397 22.9159 22.9106 23.2838 22.36C23.6516 21.8095 23.848 21.1622 23.848 20.5C23.848 20.0603 23.7614 19.625 23.5931 19.2188C23.4249 18.8126 23.1783 18.4435 22.8674 18.1326C22.5565 17.8217 22.1874 17.5751 21.7812 17.4069C21.375 17.2386 20.9397 17.152 20.5 17.152ZM33.9055 13.8445C33.8984 12.802 33.7064 11.769 33.3385 10.7935C33.0675 10.0797 32.6483 9.43148 32.1084 8.8916C31.5685 8.35172 30.9203 7.93247 30.2065 7.6615C29.231 7.29358 28.198 7.1016 27.1555 7.0945C25.414 7 24.901 7 20.5 7C16.099 7 15.586 7 13.8445 7.0945C12.802 7.1016 11.769 7.29358 10.7935 7.6615C10.0797 7.93247 9.43148 8.35172 8.8916 8.8916C8.35172 9.43148 7.93247 10.0797 7.6615 10.7935C7.29358 11.769 7.1016 12.802 7.0945 13.8445C7 15.586 7 16.099 7 20.5C7 24.901 7 25.414 7.0945 27.1555C7.10903 28.2017 7.30075 29.2379 7.6615 30.22C7.93127 30.9305 8.35017 31.575 8.89 32.11C9.42756 32.6531 10.0772 33.0724 10.7935 33.3385C11.769 33.7064 12.802 33.8984 13.8445 33.9055C15.586 34 16.099 34 20.5 34C24.901 34 25.414 34 27.1555 33.9055C28.198 33.8984 29.231 33.7064 30.2065 33.3385C30.9228 33.0724 31.5724 32.6531 32.11 32.11C32.6498 31.575 33.0687 30.9305 33.3385 30.22C33.7061 29.2397 33.898 28.2024 33.9055 27.1555C34 25.414 34 24.901 34 20.5C34 16.099 34 15.586 33.9055 13.8445ZM30.4765 24.6445C30.4332 25.4776 30.2554 26.2982 29.95 27.0745C29.6879 27.7221 29.2983 28.3103 28.8043 28.8043C28.3103 29.2983 27.7221 29.6879 27.0745 29.95C26.2908 30.2384 25.4657 30.3979 24.631 30.4225C23.5645 30.4225 23.281 30.4225 20.5 30.4225C17.719 30.4225 17.4355 30.4225 16.369 30.4225C15.5343 30.3979 14.7092 30.2384 13.9255 29.95C13.256 29.7012 12.6515 29.3043 12.157 28.789C11.6678 28.3047 11.2901 27.7196 11.05 27.0745C10.7605 26.2917 10.6053 25.4655 10.591 24.631C10.591 23.5645 10.591 23.281 10.591 20.5C10.591 17.719 10.591 17.4355 10.591 16.369C10.6053 15.5345 10.7605 14.7083 11.05 13.9255C11.2988 13.256 11.6957 12.6515 12.211 12.157C12.6975 11.6705 13.2819 11.2931 13.9255 11.05C14.7092 10.7616 15.5343 10.6021 16.369 10.5775C17.4355 10.5775 17.719 10.5775 20.5 10.5775C23.281 10.5775 23.5645 10.5775 24.631 10.5775C25.4657 10.6021 26.2908 10.7616 27.0745 11.05C27.744 11.2988 28.3485 11.6957 28.843 12.211C29.3322 12.6953 29.7099 13.2804 29.95 13.9255C30.2384 14.7092 30.3979 15.5343 30.4225 16.369C30.4225 17.4355 30.4225 17.719 30.4225 20.5C30.4225 23.281 30.517 23.5645 30.4765 24.631V24.6445ZM28.3165 14.6005C28.1558 14.1644 27.9023 13.7684 27.5737 13.4398C27.2451 13.1112 26.8491 12.8577 26.413 12.697C25.8142 12.4895 25.1836 12.3889 24.55 12.4C23.497 12.4 23.2 12.4 20.5 12.4C17.8 12.4 17.503 12.4 16.45 12.4C15.8132 12.4062 15.1824 12.5251 14.587 12.751C14.1576 12.9044 13.7658 13.1475 13.4376 13.4641C13.1094 13.7806 12.8523 14.1634 12.6835 14.587C12.4874 15.1882 12.3917 15.8177 12.4 16.45C12.4 17.503 12.4 17.8 12.4 20.5C12.4 23.2 12.4 23.497 12.4 24.55C12.4134 25.1861 12.532 25.8156 12.751 26.413C12.9117 26.8491 13.1652 27.2451 13.4938 27.5737C13.8224 27.9023 14.2184 28.1558 14.6545 28.3165C15.2305 28.5283 15.8366 28.6468 16.45 28.6675C17.503 28.6675 17.8 28.6675 20.5 28.6675C23.2 28.6675 23.497 28.6675 24.55 28.6675C25.1868 28.6613 25.8176 28.5424 26.413 28.3165C26.8491 28.1558 27.2451 27.9023 27.5737 27.5737C27.9023 27.2451 28.1558 26.8491 28.3165 26.413C28.5424 25.8176 28.6613 25.1868 28.6675 24.55C28.6675 23.497 28.6675 23.2 28.6675 20.5C28.6675 17.8 28.6675 17.503 28.6675 16.45C28.6679 15.8125 28.5488 15.1806 28.3165 14.587V14.6005ZM20.5 25.657C19.8234 25.657 19.1535 25.5235 18.5285 25.2642C17.9036 25.0049 17.336 24.6248 16.8582 24.1457C16.3804 23.6667 16.0018 23.0981 15.7441 22.4725C15.4865 21.8469 15.3547 21.1766 15.3565 20.5C15.3565 19.4795 15.6593 18.4819 16.2266 17.6335C16.7938 16.7852 17.6 16.1242 18.5431 15.7343C19.4862 15.3444 20.5238 15.243 21.5246 15.4431C22.5253 15.6432 23.4441 16.1357 24.1648 16.8582C24.8855 17.5808 25.3756 18.501 25.5731 19.5022C25.7705 20.5035 25.6665 21.5408 25.2741 22.4829C24.8817 23.425 24.2186 24.2294 23.3687 24.7945C22.5189 25.3595 21.5205 25.6597 20.5 25.657ZM25.9 16.3555C25.6016 16.3239 25.3254 16.183 25.1247 15.9599C24.924 15.7368 24.8129 15.4473 24.8129 15.1472C24.8129 14.8472 24.924 14.5577 25.1247 14.3346C25.3254 14.1115 25.6016 13.9706 25.9 13.939C26.1984 13.9706 26.4746 14.1115 26.6753 14.3346C26.876 14.5577 26.9871 14.8472 26.9871 15.1472C26.9871 15.4473 26.876 15.7368 26.6753 15.9599C26.4746 16.183 26.1984 16.3239 25.9 16.3555Z" fill="#EA9A4A"/>
</svg>
