<svg width="40" height="40" viewBox="0 0 40 40" fill="none" xmlns="http://www.w3.org/2000/svg">
<path d="M9 11.5531C9 10.813 9.25902 10.2025 9.77703 9.72153C10.295 9.2405 10.9685 9 11.7973 9C12.6113 9 13.2699 9.23679 13.7732 9.71042C14.2912 10.1988 14.5502 10.8352 14.5502 11.6197C14.5502 12.3301 14.2986 12.9221 13.7954 13.3958C13.2774 13.8842 12.5965 14.1284 11.7529 14.1284H11.7307C10.9167 14.1284 10.2581 13.8842 9.75483 13.3958C9.2516 12.9073 9 12.2931 9 11.5531ZM9.28861 30.9788V16.1486H14.2172V30.9788H9.28861ZM16.9479 30.9788H21.8764V22.6979C21.8764 22.1798 21.9357 21.7802 22.0541 21.499C22.2613 20.9958 22.5758 20.5703 22.9976 20.2225C23.4194 19.8747 23.9485 19.7008 24.5849 19.7008C26.2426 19.7008 27.0714 20.8182 27.0714 23.0531V30.9788H32V22.4759C32 20.2854 31.482 18.624 30.4459 17.4918C29.4099 16.3596 28.0409 15.7934 26.3388 15.7934C24.4295 15.7934 22.9421 16.6149 21.8764 18.2577V18.3021H21.8542L21.8764 18.2577V16.1486H16.9479C16.9775 16.6223 16.9923 18.0949 16.9923 20.5666C16.9923 23.0383 16.9775 26.509 16.9479 30.9788Z" fill="#EA9A4A"/>
</svg>
