<svg width="41" height="41" viewBox="0 0 41 41" fill="none" xmlns="http://www.w3.org/2000/svg">
<g clip-path="url(#clip0_68_2731)">
<g clip-path="url(#clip1_68_2731)">
<path d="M29.4995 10.3899H12.4566C11.6402 10.3899 10.98 11.0344 10.98 11.8313V28.9446C10.98 29.7415 11.6402 30.3899 12.4566 30.3899H29.4995C30.3159 30.3899 30.98 29.7415 30.98 28.9485V11.8313C30.98 11.0344 30.3159 10.3899 29.4995 10.3899ZM16.9136 27.4329H13.9448V17.886H16.9136V27.4329ZM15.4292 16.5852C14.4761 16.5852 13.7066 15.8157 13.7066 14.8665C13.7066 13.9172 14.4761 13.1477 15.4292 13.1477C16.3784 13.1477 17.148 13.9172 17.148 14.8665C17.148 15.8118 16.3784 16.5852 15.4292 16.5852ZM28.023 27.4329H25.0581V22.7922C25.0581 21.6868 25.0386 20.261 23.5152 20.261C21.9722 20.261 21.7378 21.468 21.7378 22.7141V27.4329H18.7769V17.886H21.6206V19.1907H21.6597C22.0542 18.4407 23.023 17.6477 24.4644 17.6477C27.4683 17.6477 28.023 19.6243 28.023 22.1946V27.4329Z" fill="white"/>
</g>
</g>
<defs>
<clipPath id="clip0_68_2731">
<rect width="40" height="40" fill="white" transform="translate(0.97998 0.389893)"/>
</clipPath>
<clipPath id="clip1_68_2731">
<rect width="40" height="40" fill="white" transform="translate(0.97998 0.389893)"/>
</clipPath>
</defs>
</svg>
