<svg width="41" height="41" viewBox="0 0 41 41" fill="none" xmlns="http://www.w3.org/2000/svg">
<g clip-path="url(#clip0_68_2713)">
<g clip-path="url(#clip1_68_2713)">
<path d="M20.857 32.3031C14.234 32.3031 8.84326 26.9124 8.84326 20.2894C8.84326 13.6663 14.234 8.27563 20.857 8.27563C27.4801 8.27563 32.8708 13.6663 32.8708 20.2894C32.8708 26.9124 27.4801 32.3031 20.857 32.3031ZM20.857 10.2133C15.2997 10.2133 10.781 14.7321 10.781 20.2894C10.781 25.8467 15.2997 30.3654 20.857 30.3654C26.4143 30.3654 30.9331 25.8467 30.9331 20.2894C30.9331 14.7321 26.4143 10.2133 20.857 10.2133Z" fill="white"/>
<path d="M17.3697 19.1073C15.0987 19.1073 12.6417 18.7701 10.0219 18.088C9.50263 17.9524 9.1926 17.4254 9.32824 16.9061C9.46387 16.3867 9.99093 16.0767 10.5102 16.2124C18.4471 18.2741 24.6593 16.9681 28.4727 12.4416C28.8177 12.0347 29.43 11.9804 29.8369 12.3253C30.2477 12.6702 30.2981 13.2826 29.9531 13.6895C26.9265 17.282 22.648 19.1073 17.3697 19.1073Z" fill="white"/>
<path d="M12.5251 28.5093C12.3004 28.5093 12.0795 28.4318 11.8973 28.2767C11.4904 27.928 11.4439 27.3156 11.7888 26.9087C17.4546 20.2857 24.7869 18.7123 31.906 22.5993C32.3749 22.8551 32.5493 23.4441 32.2935 23.913C32.0378 24.382 31.4487 24.5564 30.9798 24.3006C22.4306 19.6385 16.2106 24.723 13.2614 28.1721C13.0716 28.393 12.8003 28.5093 12.5251 28.5093Z" fill="white"/>
<path d="M24.0317 31.8382C23.9969 31.8382 23.962 31.8382 23.9271 31.8343C23.3962 31.7761 23.0125 31.2995 23.0707 30.7647C23.8264 23.8355 22.0437 16.8481 17.7769 9.98863C17.4939 9.53521 17.6335 8.9384 18.0869 8.65549C18.5403 8.37259 19.1371 8.5121 19.42 8.96553C23.9232 16.2009 25.7989 23.6068 24.9967 30.9778C24.9386 31.4739 24.5201 31.8382 24.0317 31.8382Z" fill="white"/>
</g>
</g>
<defs>
<clipPath id="clip0_68_2713">
<rect width="40" height="40" fill="white" transform="translate(0.97998 0.389893)"/>
</clipPath>
<clipPath id="clip1_68_2713">
<rect width="40" height="40" fill="white" transform="translate(0.97998 0.389893)"/>
</clipPath>
</defs>
</svg>
