<svg width="41" height="41" viewBox="0 0 41 41" fill="none" xmlns="http://www.w3.org/2000/svg">
<g clip-path="url(#clip0_68_2721)">
<g clip-path="url(#clip1_68_2721)">
<path d="M17.6512 20.4413C17.6512 18.5988 19.144 17.1047 20.986 17.1047C22.828 17.1047 24.3216 18.5988 24.3216 20.4413C24.3216 22.2838 22.828 23.7778 20.986 23.7778C19.144 23.7778 17.6512 22.2838 17.6512 20.4413ZM15.848 20.4413C15.848 23.2798 18.1483 25.5807 20.986 25.5807C23.8237 25.5807 26.124 23.2798 26.124 20.4413C26.124 17.6027 23.8237 15.3018 20.986 15.3018C18.1483 15.3018 15.848 17.6027 15.848 20.4413ZM25.1266 15.098C25.1265 15.3356 25.1969 15.5678 25.3287 15.7654C25.4606 15.963 25.6481 16.117 25.8674 16.208C26.0868 16.299 26.3282 16.3229 26.5611 16.2766C26.7941 16.2304 27.0081 16.1161 27.1761 15.9481C27.3441 15.7802 27.4585 15.5663 27.5049 15.3333C27.5513 15.1003 27.5277 14.8588 27.4369 14.6393C27.3461 14.4198 27.1923 14.2322 26.9948 14.1001C26.7974 13.9681 26.5653 13.8976 26.3278 13.8975C26.0094 13.8976 25.7038 14.0241 25.4787 14.2492C25.2535 14.4743 25.1269 14.7796 25.1266 15.098ZM16.9436 28.5883C15.968 28.5438 15.4378 28.3813 15.0854 28.244C14.6183 28.062 14.2849 27.8454 13.9345 27.4953C13.584 27.1452 13.3671 26.8121 13.186 26.3448C13.0487 25.9925 12.8862 25.462 12.8418 24.4861C12.7933 23.4311 12.7836 23.1142 12.7836 20.4414C12.7836 17.7685 12.7941 17.4525 12.8418 16.3966C12.8863 15.4207 13.05 14.8912 13.186 14.5379C13.3679 14.0706 13.5845 13.7372 13.9345 13.3866C14.2845 13.0361 14.6175 12.8191 15.0854 12.6379C15.4376 12.5005 15.968 12.338 16.9436 12.2936C17.9983 12.2451 18.3151 12.2354 20.986 12.2354C23.6569 12.2354 23.974 12.2459 25.0296 12.2936C26.0052 12.3381 26.5345 12.5018 26.8878 12.6379C27.3549 12.8191 27.6883 13.0365 28.0387 13.3866C28.3892 13.7367 28.6053 14.0706 28.7872 14.5379C28.9245 14.8902 29.087 15.4207 29.1314 16.3966C29.1799 17.4525 29.1896 17.7685 29.1896 20.4414C29.1896 23.1142 29.1799 23.4302 29.1314 24.4861C29.0869 25.462 28.9236 25.9924 28.7872 26.3448C28.6053 26.8121 28.3887 27.1455 28.0387 27.4953C27.6887 27.845 27.3549 28.062 26.8878 28.244C26.5356 28.3814 26.0052 28.5439 25.0296 28.5883C23.9749 28.6368 23.6581 28.6465 20.986 28.6465C18.3139 28.6465 17.998 28.6368 16.9436 28.5883ZM16.8607 10.493C15.7955 10.5415 15.0677 10.7105 14.432 10.9579C13.7737 11.2134 13.2164 11.5562 12.6595 12.1124C12.1026 12.6685 11.7608 13.2269 11.5054 13.8854C11.258 14.5216 11.0891 15.2493 11.0406 16.3148C10.9913 17.382 10.98 17.7232 10.98 20.4413C10.98 23.1594 10.9913 23.5005 11.0406 24.5677C11.0891 25.6333 11.258 26.3609 11.5054 26.9972C11.7608 27.6553 12.1027 28.2143 12.6595 28.7702C13.2163 29.3261 13.7737 29.6684 14.432 29.9247C15.0689 30.1721 15.7955 30.341 16.8607 30.3895C17.9282 30.4381 18.2687 30.4502 20.986 30.4502C23.7033 30.4502 24.0444 30.4389 25.1113 30.3895C26.1766 30.341 26.9039 30.1721 27.54 29.9247C28.1979 29.6684 28.7556 29.3264 29.3125 28.7702C29.8694 28.214 30.2105 27.6553 30.4666 26.9972C30.714 26.3609 30.8837 25.6332 30.9314 24.5677C30.9799 23.4997 30.9912 23.1594 30.9912 20.4413C30.9912 17.7232 30.9799 17.382 30.9314 16.3148C30.8829 15.2492 30.714 14.5212 30.4666 13.8854C30.2105 13.2273 29.8685 12.6694 29.3125 12.1124C28.7565 11.5553 28.1979 11.2134 27.5408 10.9579C26.904 10.7105 26.1765 10.5407 25.1121 10.493C24.0452 10.4445 23.7041 10.4324 20.9868 10.4324C18.2695 10.4324 17.9282 10.4437 16.8607 10.493Z" fill="white"/>
</g>
</g>
<defs>
<clipPath id="clip0_68_2721">
<rect width="40" height="40" fill="white" transform="translate(0.97998 0.389893)"/>
</clipPath>
<clipPath id="clip1_68_2721">
<rect width="40" height="40" fill="white" transform="translate(0.97998 0.389893)"/>
</clipPath>
</defs>
</svg>
