<svg width="40" height="40" viewBox="0 0 40 40" fill="none" xmlns="http://www.w3.org/2000/svg">
<path d="M20 4C16.5522 4 13.2456 5.36964 10.8076 7.80761C8.36964 10.2456 7 13.5522 7 17C7 25.775 18.4563 35.6875 18.9438 36.11C19.2381 36.3618 19.6127 36.5001 20 36.5001C20.3873 36.5001 20.7619 36.3618 21.0562 36.11C21.625 35.6875 33 25.775 33 17C33 13.5522 31.6304 10.2456 29.1924 7.80761C26.7544 5.36964 23.4478 4 20 4ZM20 32.6812C16.5387 29.4312 10.25 22.4275 10.25 17C10.25 14.4141 11.2772 11.9342 13.1057 10.1057C14.9342 8.27723 17.4141 7.25 20 7.25C22.5859 7.25 25.0658 8.27723 26.8943 10.1057C28.7228 11.9342 29.75 14.4141 29.75 17C29.75 22.4275 23.4613 29.4475 20 32.6812ZM20 10.5C18.7144 10.5 17.4577 10.8812 16.3888 11.5954C15.3199 12.3097 14.4868 13.3248 13.9948 14.5126C13.5028 15.7003 13.3741 17.0072 13.6249 18.2681C13.8757 19.529 14.4948 20.6872 15.4038 21.5962C16.3128 22.5052 17.471 23.1243 18.7319 23.3751C19.9928 23.6259 21.2997 23.4972 22.4874 23.0052C23.6752 22.5132 24.6903 21.6801 25.4046 20.6112C26.1188 19.5423 26.5 18.2856 26.5 17C26.5 15.2761 25.8152 13.6228 24.5962 12.4038C23.3772 11.1848 21.7239 10.5 20 10.5ZM20 20.25C19.3572 20.25 18.7289 20.0594 18.1944 19.7023C17.6599 19.3452 17.2434 18.8376 16.9974 18.2437C16.7514 17.6499 16.687 16.9964 16.8124 16.366C16.9378 15.7355 17.2474 15.1564 17.7019 14.7019C18.1564 14.2474 18.7355 13.9378 19.366 13.8124C19.9964 13.687 20.6499 13.7514 21.2437 13.9974C21.8376 14.2434 22.3452 14.6599 22.7023 15.1944C23.0594 15.7289 23.25 16.3572 23.25 17C23.25 17.862 22.9076 18.6886 22.2981 19.2981C21.6886 19.9076 20.862 20.25 20 20.25Z" fill="#EA9A4A"/>
</svg>
