<svg width="40" height="40" viewBox="0 0 40 40" fill="none" xmlns="http://www.w3.org/2000/svg">
<path d="M32.8731 25.601L30.4622 23.1901C29.7435 22.4772 28.7735 22.0753 27.7612 22.071C26.749 22.0667 25.7756 22.4603 25.0509 23.1671C24.6642 23.556 24.154 23.7979 23.6082 23.8513C23.0624 23.9048 22.515 23.7662 22.0603 23.4597C20.2655 22.2619 18.7236 20.723 17.5223 18.9305C17.2212 18.4707 17.0877 17.9211 17.1444 17.3744C17.2011 16.8277 17.4445 16.3172 17.8336 15.929C18.5339 15.2036 18.9225 14.2329 18.9162 13.2246C18.9098 12.2163 18.509 11.2506 17.7996 10.5341L15.3887 8.12321C14.6669 7.4039 13.6895 7 12.6705 7C11.6514 7 10.674 7.4039 9.95219 8.12321L9.25852 8.81798C5.6422 12.4343 5.91288 20.0373 13.437 27.5571C17.9738 32.095 22.5403 33.9952 26.2431 33.9952C27.3332 34.0315 28.4195 33.8505 29.4388 33.4627C30.4582 33.075 31.3902 32.4882 32.1805 31.7367L32.8753 31.0419C33.5959 30.3198 34.0004 29.3411 34 28.321C33.9996 27.3008 33.5943 26.3225 32.8731 25.601ZM31.3235 29.4923L30.6288 30.1871C27.7795 33.0363 21.4904 32.5158 14.9844 26.0086C8.47827 19.5015 7.95664 13.208 10.8059 10.3587L11.4952 9.66507C11.8055 9.35584 12.2258 9.18221 12.6639 9.18221C13.102 9.18221 13.5223 9.35584 13.8326 9.66507L16.2435 12.0759C16.5482 12.3822 16.7212 12.7954 16.7255 13.2274C16.7298 13.6594 16.5651 14.076 16.2665 14.3882C15.526 15.1334 15.0641 16.1105 14.9582 17.1557C14.8522 18.2009 15.1087 19.2507 15.6846 20.1294C17.0495 22.1719 18.8048 23.9246 20.8494 25.2865C21.7254 25.8625 22.7725 26.1204 23.8158 26.0173C24.8591 25.9142 25.8355 25.4562 26.5818 24.7199C26.8934 24.4178 27.3112 24.2501 27.7452 24.2527C28.1792 24.2554 28.5949 24.4283 28.9028 24.7342L31.3137 27.145C31.469 27.2982 31.5926 27.4805 31.6772 27.6816C31.7619 27.8827 31.8059 28.0985 31.8069 28.3166C31.8078 28.5348 31.7655 28.751 31.6826 28.9528C31.5996 29.1545 31.4776 29.3379 31.3235 29.4923Z" fill="#EA9A4A"/>
</svg>
