<svg width="30" height="25" viewBox="0 0 43 37" fill="none" xmlns="http://www.w3.org/2000/svg">
<path d="M14.2569 3.8924C8.34782 3.8924 0.28557 13.8682 1.09972 22.9966C1.91387 32.125 9.91992 34.8449 17.8201 35.5482C30.9829 36.7201 39.8555 35.5482 42.0992 22.9966C44.343 10.445 28.5455 1.6172 15.5461 1M12.323 11.2841C12.323 11.2841 16.4061 16.2121 18.7692 17.3903M9.74462 18.3544C13.0992 15.5 20.0585 12 20.0585 12M25.0992 13C27.8859 13 32.5992 17.3903 32.5992 17.3903M24.2484 18.9972C24.2484 18.9972 29.8007 13.8938 33.5992 12M20.0585 26.0676C17.0105 27.2937 21.0618 28.3927 21.5725 28.0377C22.0895 27.6783 23.1065 24.8414 20.0585 26.0676Z" stroke="#EA9A4A" stroke-linecap="round"/>
</svg>
