<svg width="40" height="40" viewBox="0 0 40 40" fill="none" xmlns="http://www.w3.org/2000/svg">
<path d="M27.2318 19.0068C27.1016 18.9444 26.9694 18.8843 26.8354 18.8268C26.6022 14.5287 24.2536 12.0681 20.3101 12.0429C20.2922 12.0428 20.2744 12.0428 20.2566 12.0428C17.8978 12.0428 15.9361 13.0496 14.7287 14.8817L16.8975 16.3695C17.7995 15.0009 19.2151 14.7092 20.2576 14.7092C20.2696 14.7092 20.2817 14.7092 20.2936 14.7093C21.5921 14.7176 22.5719 15.0951 23.2061 15.8313C23.6676 16.3673 23.9762 17.108 24.1291 18.0428C22.9779 17.8471 21.7328 17.787 20.4018 17.8633C16.6525 18.0792 14.2422 20.2659 14.404 23.3044C14.4862 24.8456 15.254 26.1716 16.566 27.0378C17.6753 27.77 19.1039 28.1281 20.5887 28.047C22.5496 27.9395 24.0878 27.1914 25.161 25.8234C25.976 24.7846 26.4915 23.4383 26.7191 21.742C27.6536 22.306 28.3461 23.0481 28.7286 23.9403C29.379 25.4568 29.4169 27.949 27.3835 29.9807C25.6019 31.7606 23.4603 32.5306 20.2237 32.5543C16.6336 32.5277 13.9183 31.3763 12.153 29.1321C10.4999 27.0307 9.64554 23.9954 9.61366 20.1104C9.64554 16.2254 10.4999 13.1901 12.153 11.0887C13.9183 8.84448 16.6335 7.69312 20.2237 7.66644C23.8399 7.69332 26.6025 8.85023 28.4354 11.1052C29.3341 12.2111 30.0118 13.6017 30.4585 15.2232L33 14.5451C32.4585 12.5493 31.6065 10.8294 30.4471 9.40311C28.0973 6.51209 24.6606 5.03072 20.2326 5H20.2148C15.7958 5.03061 12.3976 6.51762 10.1147 9.41969C8.08321 12.0022 7.03532 15.5955 7.00011 20.0998L7 20.1104L7.00011 20.121C7.03532 24.6253 8.08321 28.2187 10.1147 30.8012C12.3976 33.7032 15.7958 35.1903 20.2148 35.2208H20.2326C24.1613 35.1936 26.9306 34.165 29.212 31.8857C32.1968 28.9037 32.1069 25.166 31.1232 22.8714C30.4174 21.2259 29.0718 19.8895 27.2318 19.0068ZM20.4484 25.3844C18.8051 25.477 17.0979 24.7394 17.0137 23.1596C16.9513 21.9882 17.8474 20.6812 20.5492 20.5255C20.8586 20.5076 21.1622 20.4989 21.4605 20.4989C22.4419 20.4989 23.36 20.5942 24.1947 20.7767C23.8834 24.6648 22.0572 25.2961 20.4484 25.3844Z" fill="#EA9A4A"/>
</svg>
