<svg width="72" height="62" viewBox="0 0 72 62" fill="none" xmlns="http://www.w3.org/2000/svg">
<g clip-path="url(#clip0_68_2642)">
<path d="M36.0793 60.8256C52.6131 60.8256 66.0165 47.4439 66.0165 30.9367C66.0165 14.4295 52.6131 1.04785 36.0793 1.04785C19.5454 1.04785 6.14209 14.4295 6.14209 30.9367C6.14209 47.4439 19.5454 60.8256 36.0793 60.8256Z" fill="white"/>
<path d="M36.0794 1.70706C42.8465 1.7115 49.4028 4.06206 54.6312 8.35827C59.8596 12.6545 63.4367 18.6306 64.7531 25.2684C66.0696 31.9062 65.0438 38.7951 61.8507 44.7615C58.6576 50.7279 53.4946 55.4026 47.2414 57.9893C40.9881 60.5759 34.0315 60.9145 27.5566 58.9473C21.0818 56.9801 15.4893 52.8288 11.7319 47.2006C7.97448 41.5725 6.28466 34.8158 6.95031 28.0815C7.61595 21.3472 10.5959 15.052 15.3824 10.2684C18.0963 7.54348 21.3233 5.38334 24.8769 3.91274C28.4304 2.44214 32.2402 1.69024 36.086 1.70047M36.086 0.382324C19.1874 0.382324 5.48975 14.058 5.48975 30.9193C5.48975 47.7805 19.1808 61.4936 36.0794 61.4936C52.978 61.4936 66.6757 47.8178 66.6757 30.9566C66.6757 14.0954 52.978 0.388915 36.0794 0.388915L36.086 0.382324Z" fill="#4385F4"/>
<path d="M36.0485 59.2658C51.7015 59.2658 64.3886 46.5962 64.3886 30.9675C64.3886 15.3387 51.7015 2.67139 36.0485 2.67139C20.3956 2.67139 7.7085 15.3409 7.7085 30.9675C7.7085 46.5941 20.3978 59.2658 36.0485 59.2658Z" stroke="#4385F4" stroke-width="0.43938" stroke-miterlimit="10" stroke-dasharray="0.66 0.66"/>
<path d="M38.309 31.2247H34.8379L35.4311 29.9637L35.9429 28.7817H37.2062L37.718 29.9637L38.309 31.2247Z" fill="#FF7058"/>
<path d="M40.5169 31.2246H32.63C32.4214 31.2251 32.2214 31.3081 32.0737 31.4554C31.926 31.6027 31.8425 31.8024 31.8413 32.0111V34.5704H41.2682V32.0111C41.2753 31.9089 41.2609 31.8065 41.2262 31.7102C41.1914 31.6139 41.1369 31.526 41.0662 31.452C40.9955 31.3779 40.9101 31.3195 40.8155 31.2803C40.7209 31.2412 40.6192 31.2222 40.5169 31.2246Z" fill="#FFD15C"/>
<mask id="mask0_68_2642" style="mask-type:luminance" maskUnits="userSpaceOnUse" x="35" y="28" width="3" height="3">
<path d="M37.7181 29.9637C37.4103 30.1264 37.0943 30.2731 36.7713 30.403L36.5735 30.4426L36.378 30.3635C36.0548 30.234 35.7387 30.0873 35.4312 29.9241L35.943 28.7422H37.1645L37.7181 29.9637Z" fill="white"/>
</mask>
<g mask="url(#mask0_68_2642)">
<path d="M38.8164 27.6438H34.3325V31.5345H38.8164V27.6438Z" fill="#F1543F"/>
</g>
<path d="M42.7272 15.6685H30.4245C30.2992 15.6702 30.1795 15.7207 30.0908 15.8093C30.0022 15.898 29.9517 16.0177 29.95 16.143C29.947 16.2079 29.957 16.2727 29.9794 16.3337C30.0017 16.3947 30.0359 16.4506 30.0801 16.4982C30.1243 16.5459 30.1774 16.5843 30.2366 16.6111C30.2957 16.638 30.3596 16.6529 30.4245 16.6549H42.7272C42.8521 16.6526 42.9712 16.6018 43.0594 16.5132C43.1476 16.4247 43.1978 16.3053 43.1995 16.1803C43.2024 16.1156 43.1925 16.051 43.1703 15.9901C43.1481 15.9293 43.1141 15.8734 43.0701 15.8258C43.0262 15.7782 42.9733 15.7398 42.9144 15.7128C42.8555 15.6858 42.7919 15.6707 42.7272 15.6685ZM27.1094 17.8346V19.4493C27.1158 21.324 27.6775 23.1547 28.7234 24.7104C29.7693 26.2662 31.2526 27.4772 32.9861 28.1908C35.285 29.1369 37.8645 29.1369 40.1634 28.1908C41.8969 27.4772 43.3802 26.2662 44.4261 24.7104C45.472 23.1547 46.0336 21.324 46.0401 19.4493V17.8346H27.1094ZM44.4649 19.4493C44.4654 21.278 43.823 23.0486 42.6503 24.4517C41.9091 25.3453 40.9812 26.0657 39.9317 26.5622C38.8823 27.0586 37.7368 27.3191 36.5758 27.3252C35.4137 27.3278 34.2657 27.0711 33.2153 26.574C32.1648 26.077 31.2385 25.3519 30.5036 24.4517C29.3403 23.0431 28.6993 21.2761 28.6889 19.4493V19.4098H44.4254V19.4493H44.4649Z" fill="#F8B64C"/>
<path d="M42.727 16.6548V20.9058C42.7238 22.8426 42.1345 24.7331 41.0365 26.3286C39.9386 27.9241 38.3835 29.15 36.5756 29.845C34.7663 29.1413 33.2112 27.9081 32.1138 26.3066C31.0164 24.7051 30.4275 22.8099 30.4243 20.8684V16.6548H42.727Z" fill="#FFD15C"/>
<mask id="mask1_68_2642" style="mask-type:luminance" maskUnits="userSpaceOnUse" x="30" y="16" width="13" height="2">
<path d="M42.6877 16.6548H30.4224V17.2458H42.6877V16.6548Z" fill="white"/>
</mask>
<g mask="url(#mask1_68_2642)">
<path d="M43.7859 15.5564H29.3237V18.3443H43.7859V15.5564Z" fill="#FFC952"/>
</g>
<path d="M36.033 21.1363C36.033 21.1363 35.6793 21.1012 35.6793 21.4132V22.7994H38.0102V23.2146C38.0116 23.2433 38.0068 23.272 37.9961 23.2988C37.9854 23.3255 37.9691 23.3495 37.9482 23.3693C37.9274 23.3892 37.9025 23.4042 37.8753 23.4136C37.8481 23.4229 37.8192 23.4262 37.7905 23.4233H35.6815V25.2248H38.2299C38.2299 25.2248 39.7678 24.9897 39.7831 23.4233V21.1363H36.033ZM39.6447 18.8911H35.1103C33.4692 19.28 33.4341 20.6486 33.4341 20.6486V25.2358H35.1916V21.0617C35.1908 20.9625 35.2236 20.866 35.2846 20.7878C35.3456 20.7096 35.4313 20.6544 35.5277 20.6311H39.6469L39.6447 18.8911Z" fill="white"/>
<path opacity="0.5" d="M21.7841 52.7586L21.76 52.7432C21.76 52.7432 21.7688 52.7498 21.7841 52.7586ZM18.4075 50.0147L18.3899 49.9971C18.3899 49.9971 18.3965 50.0059 18.4075 50.0147ZM11.2192 31.7386V31.7254C11.2192 31.7254 11.2192 31.732 11.2192 31.7408V31.7386ZM11.5685 27.9512C11.5685 27.9358 11.5685 27.927 11.5685 27.9292C11.5685 27.9314 11.5663 27.9402 11.5685 27.9534V27.9512Z" fill="#4385F4"/>
<g opacity="0.5">
<path d="M35.517 53.7581C33.3578 53.8551 31.1973 53.5968 29.1218 52.9936C29.8643 52.0314 28.6385 51.0735 27.4631 50.1508L25.0004 48.312C24.9718 48.334 26.4504 49.8059 26.3185 51.0889C26.2706 51.3807 26.2788 51.6789 26.3427 51.9676C26.0066 51.8117 25.6836 51.6513 25.3497 51.4799C26.2131 50.6517 25.2355 49.4654 24.2952 48.3406C23.3022 47.2048 22.3004 46.0909 22.2982 46.0887C22.296 46.0865 23.3967 47.8199 23.032 49.0831C22.9339 49.3654 22.8877 49.6631 22.8958 49.9619C22.6036 49.7422 22.318 49.5357 22.0412 49.3028C23.0122 48.6174 22.3048 47.2641 21.6018 45.9943C20.8636 44.7047 20.1013 43.4525 20.1013 43.4503C20.1013 43.4481 20.8439 45.333 20.2595 46.5391C20.1138 46.8055 20.0164 47.0956 19.9717 47.3959C19.73 47.1381 19.4957 46.8767 19.2687 46.6116C20.3078 46.0778 19.9036 44.6344 19.462 43.2591C18.9721 41.8641 18.4448 40.5569 18.4492 40.5372C18.4536 40.5174 18.8425 42.4968 18.0604 43.6128C17.8704 43.8555 17.7219 44.1279 17.621 44.4191C17.4335 44.1262 17.2534 43.8333 17.0806 43.5403C18.179 43.1537 18.045 41.6686 17.8495 40.2626C17.61 38.8258 17.3156 37.4725 17.3156 37.4571C17.3156 37.4417 17.3794 39.4343 16.4237 40.4141C16.2001 40.6277 16.0118 40.8754 15.8657 41.1479C15.78 40.948 15.6943 40.7481 15.613 40.546C15.5515 40.39 15.49 40.234 15.4329 40.0758C16.5467 39.8693 16.6456 38.4611 16.6763 37.1254C16.6763 35.7611 16.5973 34.4715 16.5907 34.4583C16.5841 34.4452 16.371 36.2884 15.3187 37.0946C15.0737 37.2655 14.8578 37.4747 14.6794 37.7141C14.5695 37.2923 14.4597 36.8705 14.385 36.4443C15.4834 36.4136 15.7888 35.1262 16.0063 33.8762C16.2238 32.6261 16.3029 31.3959 16.2919 31.3959C16.2809 31.3959 15.8525 33.0589 14.7541 33.6565C14.4936 33.787 14.2561 33.9591 14.051 34.1661C13.9983 33.6858 13.9595 33.2046 13.9346 32.7228C14.9935 32.8502 15.4439 31.6902 15.8064 30.5632C16.032 29.819 16.2197 29.0637 16.3688 28.3004C16.3556 28.3004 15.7514 29.7899 14.6464 30.1985C14.3806 30.2856 14.1312 30.4163 13.9082 30.5852C13.9214 30.1568 13.9434 29.7284 13.9742 29.3044C13.9742 29.2033 13.9917 29.1023 13.9983 29.0034C14.954 29.2693 15.5493 28.2389 16.0063 27.2459C16.4632 26.2529 16.7862 25.2006 16.7862 25.1984C16.7862 25.1962 16.0458 26.5165 14.965 26.7516C14.7106 26.7952 14.465 26.8798 14.2378 27.0021C14.3257 26.4418 14.4333 25.8838 14.5563 25.328C15.3955 25.6685 16.059 24.8008 16.5819 23.933C16.9308 23.3314 17.2476 22.7117 17.5309 22.0766C17.5309 22.0766 16.7005 23.2519 15.6789 23.3266C15.4591 23.3356 15.2419 23.3786 15.0353 23.4541C15.2022 22.877 15.3868 22.2999 15.5889 21.7229C16.3007 22.0854 16.9861 21.3692 17.5485 20.6244C17.9422 20.0817 18.3046 19.5169 18.6338 18.9328C18.6338 18.9328 17.7374 19.9873 16.7928 19.9258C16.6182 19.911 16.4424 19.9191 16.2699 19.95C16.5028 19.3905 16.751 18.8296 17.0147 18.2672L17.0608 18.1573C17.6518 18.522 18.335 17.9376 18.9216 17.2786C19.3547 16.7786 19.7617 16.2565 20.1409 15.7144C20.1409 15.7144 19.1742 16.6766 18.3284 16.5074C18.1553 16.4653 17.9764 16.4519 17.799 16.4679C18.3864 15.2183 19.0466 14.0043 19.7762 12.832C18.9523 14.0403 18.2208 15.2267 17.5793 16.402C17.5034 16.1894 17.396 15.9895 17.2607 15.8088C16.9905 15.4441 16.9839 14.8554 17.0806 14.3523C17.1413 14.0392 17.2333 13.7331 17.3552 13.4384C16.9188 14.1418 16.5699 14.8957 16.3161 15.6836C15.9799 16.7952 15.9909 17.8476 16.7554 17.9794C16.4501 18.5945 16.1711 19.2118 15.9118 19.8248C15.8053 19.6535 15.6776 19.4962 15.5318 19.3568C15.1824 19.0251 15.0924 18.4363 15.1078 17.9245C15.1218 17.6052 15.1704 17.2885 15.2528 16.9798C14.8993 17.7352 14.6431 18.5325 14.4904 19.3524C14.3015 20.4773 14.4421 21.5274 15.222 21.613C15.0243 22.1784 14.8434 22.7437 14.6794 23.3091C14.5484 23.1661 14.4009 23.0393 14.24 22.9312C13.392 22.3886 13.5589 20.6969 13.5897 20.5695C13.3227 21.3794 13.1625 22.2205 13.113 23.0718C13.0668 24.2318 13.348 25.2885 14.1631 25.2973C14.1631 25.2973 14.1631 25.2973 14.1631 25.3104C14.0532 25.8274 13.9566 26.3481 13.8731 26.8724C13.7164 26.75 13.5461 26.646 13.3656 26.5627C12.4012 26.1233 12.3506 24.3658 12.366 24.2274C12.1916 25.099 12.1347 25.9901 12.1969 26.8768C12.3023 28.0895 12.7417 29.1594 13.6051 29.0452C13.5655 29.5329 13.5377 30.0206 13.5216 30.5083C13.3372 30.3963 13.1404 30.3064 12.935 30.2403C11.8871 29.9173 11.5839 28.184 11.5685 27.9665C11.5049 28.8938 11.5655 29.8255 11.7487 30.7368C12.0079 31.989 12.667 33.0919 13.548 32.8151C13.5714 33.2632 13.608 33.7114 13.6578 34.1596C13.4401 34.0562 13.2096 33.9823 12.9724 33.9399C11.8102 33.7487 11.25 31.9121 11.2148 31.743C11.2756 32.7371 11.4729 33.718 11.8014 34.6583C12.2628 35.961 13.1327 37.0529 14.0313 36.574C14.117 36.9826 14.2114 37.3912 14.3191 37.7976C14.0613 37.7131 13.7927 37.6658 13.5216 37.657C12.2518 37.6219 11.3862 35.693 11.3576 35.5744C11.5668 36.6212 11.9233 37.633 12.4165 38.5797C13.1174 39.9132 14.2268 40.959 15.1012 40.2494C15.2374 40.6097 15.3838 40.9663 15.5405 41.3193C15.247 41.2606 14.9463 41.2465 14.6486 41.2775C13.2975 41.4269 12.0672 39.4629 12.0541 39.3904C12.4356 40.4692 12.9745 41.4856 13.6534 42.4067C14.62 43.7249 15.9843 44.6717 16.7752 43.7468C16.951 44.0398 17.134 44.3327 17.3244 44.6256C17.024 44.6084 16.7227 44.6358 16.4303 44.7069C15.0836 45.0496 13.5062 43.1976 13.5326 43.1691C14.0833 44.2014 14.7911 45.1419 15.6306 45.9569C16.8213 47.1323 18.3526 47.8748 18.9897 46.8357C19.2094 47.1037 19.4576 47.3695 19.7037 47.6288C19.4021 47.6549 19.106 47.7252 18.8249 47.8375C17.5793 48.3691 15.8217 46.9499 15.6548 46.7742C16.3901 47.714 17.2608 48.5394 18.2383 49.2237C19.6729 50.2167 21.3316 50.6737 21.7973 49.5818C22.08 49.8132 22.3729 50.0329 22.6761 50.2409C22.368 50.3125 22.0719 50.4287 21.7973 50.5858C20.6461 51.2712 18.6118 50.1574 18.4053 50.0058C19.3184 50.819 20.3466 51.4927 21.4568 52.005C23.0935 52.7497 24.8708 52.9123 25.1454 51.7853C25.4749 51.9611 25.8045 52.1258 26.156 52.284C25.863 52.4042 25.5885 52.5654 25.3409 52.7629C24.2974 53.6219 22.0456 52.8772 21.7819 52.7629C22.8655 53.4139 24.0408 53.8982 25.2684 54.1997C27.0677 54.6391 28.9131 54.4765 29.0032 53.3473C31.1062 53.9636 33.2972 54.2249 35.4862 54.1206L35.517 53.7581Z" fill="#4385F4"/>
</g>
<path d="M44.6008 48.5319C44.6563 48.458 44.685 48.3673 44.6821 48.2749C44.6821 48.2573 44.6821 48.2243 44.6821 48.1738C44.6821 48.1233 44.6821 48.0881 44.6821 48.0706C44.6849 47.9778 44.6554 47.8869 44.5986 47.8135C44.5714 47.7828 44.5373 47.7588 44.4992 47.7436C44.461 47.7283 44.4198 47.7222 44.3789 47.7256C44.338 47.7225 44.2969 47.7288 44.2588 47.744C44.2207 47.7593 44.1867 47.783 44.1592 47.8135C44.1032 47.8872 44.0744 47.9781 44.0779 48.0706V48.1738V48.2749C44.0747 48.3677 44.1043 48.4587 44.1614 48.5319C44.1893 48.5617 44.2235 48.5849 44.2615 48.5998C44.2995 48.6146 44.3404 48.6207 44.3811 48.6176C44.4218 48.6208 44.4627 48.6148 44.5008 48.6C44.5388 48.5851 44.573 48.5619 44.6008 48.5319ZM43.9066 48.7274C43.8486 48.6699 43.8027 48.6014 43.7714 48.526C43.7401 48.4506 43.724 48.3697 43.7242 48.2881V48.0574C43.7241 47.9755 43.7403 47.8945 43.772 47.819C43.8037 47.7436 43.8502 47.6752 43.9088 47.618C44.0461 47.5155 44.213 47.4601 44.3844 47.4601C44.5558 47.4601 44.7226 47.5155 44.86 47.618C44.9186 47.6752 44.965 47.7436 44.9967 47.819C45.0284 47.8945 45.0447 47.9755 45.0446 48.0574C45.0446 48.0772 45.0446 48.1167 45.0446 48.1738C45.0446 48.2309 45.0446 48.2683 45.0446 48.2881C45.0452 48.3698 45.0294 48.4508 44.9981 48.5263C44.9668 48.6018 44.9206 48.6702 44.8622 48.7274C44.724 48.83 44.5565 48.8854 44.3844 48.8854C44.2123 48.8854 44.0448 48.83 43.9066 48.7274ZM42.3995 48.7274C42.341 48.6703 42.2948 48.6019 42.2634 48.5264C42.2321 48.4509 42.2164 48.3698 42.2171 48.2881V48.1826V48.0772C42.2167 47.9955 42.2326 47.9145 42.264 47.8391C42.2953 47.7636 42.3414 47.6952 42.3995 47.6378C42.5276 47.5267 42.6936 47.4692 42.863 47.4774C42.9843 47.4738 43.1046 47.4987 43.2145 47.5499C43.3019 47.5903 43.3775 47.6523 43.4342 47.73C43.4768 47.7903 43.5025 47.8608 43.5089 47.9344C43.5098 47.9429 43.5087 47.9515 43.5056 47.9595C43.5026 47.9675 43.4977 47.9747 43.4914 47.9805C43.4786 47.9917 43.4622 47.998 43.4452 47.9981H43.2123C43.198 48.0025 43.1827 48.0025 43.1684 47.9981C43.1567 47.9854 43.1478 47.9704 43.142 47.9541C43.1226 47.8967 43.0867 47.8463 43.0388 47.8091C42.9898 47.7777 42.9322 47.7623 42.874 47.7652C42.8334 47.7606 42.7923 47.7658 42.7541 47.7804C42.7159 47.7949 42.6817 47.8183 42.6543 47.8487C42.5981 47.9231 42.5694 48.0147 42.5731 48.1079V48.2925C42.5848 48.5209 42.6814 48.6352 42.863 48.6352C42.9218 48.6373 42.9799 48.622 43.03 48.5912C43.0775 48.5532 43.1127 48.502 43.1311 48.444C43.1364 48.4282 43.1455 48.4139 43.1574 48.4023C43.1698 48.3924 43.1856 48.3877 43.2014 48.3891H43.4342C43.4512 48.3892 43.4676 48.3954 43.4804 48.4067C43.4867 48.4125 43.4916 48.4197 43.4946 48.4277C43.4977 48.4357 43.4988 48.4443 43.4979 48.4528C43.4913 48.5239 43.4663 48.592 43.4254 48.6505C43.3699 48.7304 43.294 48.7941 43.2058 48.8351C43.0951 48.8892 42.973 48.9156 42.8499 48.912C42.6838 48.9103 42.5245 48.8459 42.4039 48.7318L42.3995 48.7274ZM41.5932 48.8439C41.5875 48.8381 41.5831 48.8312 41.58 48.8237C41.577 48.8161 41.5755 48.8081 41.5757 48.7999V48.5319C41.575 48.5234 41.5762 48.5148 41.5792 48.5068C41.5821 48.4987 41.5868 48.4915 41.5929 48.4854C41.5989 48.4793 41.6062 48.4747 41.6142 48.4717C41.6223 48.4687 41.6308 48.4675 41.6394 48.4682H41.9052C41.9133 48.4681 41.9214 48.4696 41.9289 48.4726C41.9365 48.4756 41.9433 48.4801 41.9491 48.4858C41.9554 48.4917 41.9604 48.4989 41.9637 48.5068C41.9671 48.5147 41.9689 48.5233 41.9689 48.5319V48.7977C41.969 48.8059 41.9675 48.8139 41.9645 48.8215C41.9615 48.829 41.957 48.8359 41.9513 48.8417C41.9456 48.8483 41.9385 48.8535 41.9305 48.8569C41.9226 48.8603 41.9139 48.8619 41.9052 48.8614H41.6394C41.6301 48.8633 41.6206 48.863 41.6115 48.8608C41.6024 48.8585 41.5939 48.8542 41.5866 48.8483L41.5932 48.8439ZM40.3739 48.8285C40.2974 48.7976 40.229 48.7495 40.174 48.6879C40.1382 48.65 40.1158 48.6014 40.1103 48.5495C40.1097 48.5418 40.1107 48.5341 40.1134 48.5269C40.116 48.5197 40.1203 48.5132 40.1257 48.5077C40.137 48.497 40.1518 48.4907 40.1674 48.4902H40.3871C40.3946 48.4907 40.4019 48.4929 40.4084 48.4967C40.4149 48.5006 40.4204 48.5058 40.4245 48.5121L40.4838 48.5627C40.55 48.6186 40.6344 48.6483 40.7211 48.6462C40.7807 48.6487 40.8399 48.6351 40.8924 48.6066C40.913 48.5945 40.9299 48.5771 40.9415 48.5562C40.9531 48.5354 40.9589 48.5118 40.9583 48.488C40.9594 48.4565 40.9484 48.4259 40.9276 48.4023C40.8968 48.3744 40.8599 48.3541 40.8199 48.343C40.7429 48.317 40.6644 48.2958 40.5849 48.2793C40.4639 48.2616 40.3501 48.2115 40.2553 48.1343C40.2194 48.1021 40.1912 48.0623 40.1726 48.0179C40.1539 47.9734 40.1454 47.9254 40.1477 47.8772C40.1485 47.8057 40.1707 47.7361 40.2114 47.6773C40.2597 47.6108 40.3249 47.5584 40.4003 47.5257C40.4942 47.4839 40.5963 47.4637 40.6991 47.4664C40.8043 47.4635 40.909 47.4822 41.0067 47.5213C41.0817 47.5519 41.1491 47.5983 41.2044 47.6575C41.2419 47.6954 41.2652 47.7451 41.2703 47.7981C41.2706 47.8054 41.2694 47.8127 41.2667 47.8195C41.2641 47.8263 41.2601 47.8325 41.2549 47.8377C41.2496 47.8434 41.2431 47.848 41.2359 47.851C41.2287 47.854 41.221 47.8555 41.2132 47.8553H41.0154C41.0071 47.8559 40.9986 47.8544 40.991 47.851C40.9833 47.8475 40.9766 47.8422 40.9715 47.8355C40.9507 47.8199 40.9309 47.803 40.9122 47.785C40.8841 47.7625 40.853 47.744 40.8199 47.73C40.7817 47.714 40.7405 47.7065 40.6991 47.7081C40.6459 47.7034 40.5928 47.7182 40.5497 47.7498C40.5328 47.7631 40.5193 47.7802 40.5101 47.7996C40.501 47.8191 40.4965 47.8404 40.497 47.8619C40.4955 47.8902 40.504 47.9182 40.5211 47.9409C40.55 47.9679 40.5846 47.9882 40.6222 48.0003C40.6939 48.0241 40.7674 48.0425 40.8419 48.0552C41.1582 48.1167 41.3164 48.2551 41.3164 48.4704C41.317 48.5305 41.3023 48.5898 41.2739 48.6428C41.2455 48.6958 41.2042 48.7407 41.1538 48.7736C41.0187 48.8583 40.8606 48.8989 40.7013 48.89C40.5872 48.8945 40.4735 48.875 40.3674 48.8329L40.3739 48.8285ZM37.8233 48.8439C37.8177 48.8381 37.8132 48.8312 37.8102 48.8237C37.8071 48.8161 37.8057 48.8081 37.8058 48.7999V47.5543C37.8059 47.5373 37.8121 47.5209 37.8233 47.5082C37.8363 47.4975 37.8527 47.4921 37.8695 47.4928H38.076C38.0843 47.4921 38.0927 47.4931 38.1006 47.4957C38.1086 47.4984 38.1159 47.5026 38.1221 47.5082C38.1281 47.5142 38.1327 47.5214 38.1357 47.5294C38.1388 47.5373 38.1401 47.5458 38.1397 47.5543V47.6532C38.1848 47.5954 38.243 47.5491 38.3094 47.5182C38.3759 47.4873 38.4487 47.4725 38.522 47.4752C38.6056 47.4682 38.6895 47.4866 38.7624 47.5282C38.8354 47.5698 38.894 47.6325 38.9306 47.7081C38.9748 47.6369 39.0369 47.5786 39.1107 47.5389C39.1871 47.4958 39.2735 47.4739 39.3612 47.4752C39.4272 47.4731 39.4929 47.4852 39.5539 47.5105C39.6149 47.5359 39.6698 47.5741 39.7149 47.6224C39.8127 47.7429 39.8614 47.8959 39.8511 48.0508V48.8087C39.8512 48.8168 39.8497 48.8249 39.8467 48.8324C39.8437 48.84 39.8392 48.8469 39.8335 48.8527C39.8278 48.8593 39.8207 48.8645 39.8127 48.8679C39.8047 48.8713 39.7961 48.8729 39.7874 48.8724H39.5677C39.5591 48.8724 39.5505 48.8707 39.5426 48.8673C39.5347 48.8639 39.5275 48.8589 39.5216 48.8527C39.5159 48.8469 39.5114 48.84 39.5084 48.8324C39.5054 48.8249 39.5039 48.8168 39.504 48.8087V48.0728C39.5115 47.9869 39.4864 47.9014 39.4337 47.8333C39.4105 47.8084 39.3822 47.7888 39.3507 47.7759C39.3192 47.763 39.2853 47.7571 39.2513 47.7586C39.2185 47.7583 39.1859 47.7648 39.1557 47.7777C39.1255 47.7905 39.0982 47.8095 39.0756 47.8333C39.0215 47.9008 38.9955 47.9866 39.0031 48.0728V48.8087C39.0032 48.8168 39.0017 48.8249 38.9987 48.8324C38.9957 48.84 38.9912 48.8469 38.9855 48.8527C38.9798 48.8593 38.9727 48.8645 38.9647 48.8679C38.9567 48.8713 38.9481 48.8729 38.9394 48.8724H38.7197C38.7031 48.8714 38.6875 48.8643 38.6758 48.8526C38.6641 48.8409 38.657 48.8253 38.656 48.8087V48.0728C38.6641 47.9869 38.639 47.9011 38.5857 47.8333C38.5621 47.809 38.5337 47.7898 38.5023 47.7769C38.4709 47.764 38.4372 47.7578 38.4033 47.7586C38.3705 47.7585 38.338 47.765 38.3078 47.7779C38.2775 47.7907 38.2503 47.8096 38.2276 47.8333C38.1735 47.9008 38.1475 47.9866 38.1551 48.0728V48.8087C38.1556 48.8167 38.1545 48.8247 38.1519 48.8323C38.1492 48.8398 38.1451 48.8468 38.1397 48.8527C38.1337 48.8589 38.1266 48.8639 38.1187 48.8673C38.1107 48.8707 38.1022 48.8724 38.0936 48.8724H37.8739C37.8631 48.8736 37.8522 48.872 37.8422 48.8678C37.8322 48.8635 37.8234 48.8568 37.8168 48.8483L37.8233 48.8439ZM36.7249 48.8439C36.7192 48.8381 36.7147 48.8312 36.7117 48.8237C36.7087 48.8161 36.7072 48.8081 36.7073 48.7999V47.5587C36.7071 47.541 36.7133 47.5238 36.7249 47.5104C36.731 47.5044 36.7382 47.4998 36.7461 47.4967C36.7541 47.4937 36.7625 47.4924 36.771 47.4928H36.9907C36.9996 47.4922 37.0084 47.4934 37.0167 47.4965C37.0251 47.4995 37.0327 47.5042 37.0391 47.5104C37.0506 47.5238 37.0569 47.541 37.0566 47.5587V47.6663C37.1006 47.6081 37.1584 47.5618 37.2247 47.5315C37.2911 47.5012 37.3639 47.4879 37.4367 47.4928H37.5465C37.5549 47.4921 37.5633 47.4931 37.5712 47.4957C37.5791 47.4984 37.5864 47.5026 37.5927 47.5082C37.5986 47.5142 37.6033 47.5214 37.6063 47.5294C37.6093 47.5373 37.6107 47.5458 37.6102 47.5543V47.7476C37.6109 47.7558 37.6097 47.764 37.6067 47.7717C37.6036 47.7793 37.5988 47.7861 37.5927 47.7916C37.587 47.7981 37.5799 47.8034 37.5719 47.8068C37.5639 47.8102 37.5552 47.8118 37.5465 47.8113H37.34C37.3044 47.8093 37.2687 47.8145 37.2351 47.8266C37.2015 47.8387 37.1707 47.8574 37.1445 47.8816C37.1196 47.9075 37.1004 47.9382 37.0879 47.9718C37.0754 48.0055 37.07 48.0413 37.072 48.0772V48.7999C37.0727 48.8081 37.0715 48.8164 37.0684 48.824C37.0654 48.8316 37.0606 48.8384 37.0544 48.8439C37.0489 48.8501 37.0421 48.855 37.0346 48.8584C37.027 48.8618 37.0188 48.8636 37.0105 48.8636H36.7578C36.741 48.8648 36.7245 48.8593 36.7117 48.8483L36.7249 48.8439ZM35.2486 48.8439C35.2429 48.8381 35.2384 48.8312 35.2354 48.8237C35.2324 48.8161 35.2309 48.8081 35.231 48.7999V47.774H35.0113C35.0028 47.7746 34.9942 47.7734 34.9862 47.7705C34.9781 47.7675 34.9709 47.7628 34.9648 47.7568C34.9587 47.7507 34.9541 47.7434 34.9511 47.7354C34.9481 47.7274 34.9469 47.7188 34.9476 47.7103V47.5543C34.9478 47.538 34.9541 47.5223 34.9652 47.5104C34.9712 47.5044 34.9785 47.4998 34.9864 47.4967C34.9943 47.4937 35.0028 47.4924 35.0113 47.4928H35.231V47.3873C35.226 47.3219 35.235 47.2561 35.2573 47.1944C35.2797 47.1326 35.3149 47.0763 35.3606 47.0292C35.4709 46.9428 35.6098 46.9012 35.7495 46.9128H36.2965C36.3048 46.9121 36.3132 46.9131 36.3212 46.9157C36.3291 46.9184 36.3364 46.9226 36.3426 46.9282C36.3539 46.9409 36.3601 46.9573 36.3602 46.9743V47.1303C36.3602 47.1389 36.3585 47.1475 36.3551 47.1554C36.3517 47.1633 36.3467 47.1705 36.3404 47.1764C36.3346 47.1821 36.3278 47.1866 36.3202 47.1896C36.3127 47.1926 36.3046 47.1941 36.2965 47.194H35.7627C35.7363 47.1915 35.7097 47.1947 35.6847 47.2035C35.6596 47.2122 35.6368 47.2262 35.6177 47.2445C35.5869 47.2905 35.5722 47.3453 35.5759 47.4005V47.4928H36.2965C36.3048 47.4921 36.3132 47.4931 36.3212 47.4957C36.3291 47.4984 36.3364 47.5026 36.3426 47.5082C36.3539 47.5209 36.3601 47.5373 36.3602 47.5543V48.7999C36.3603 48.8081 36.3588 48.8161 36.3558 48.8237C36.3528 48.8312 36.3483 48.8381 36.3426 48.8439C36.337 48.8505 36.3299 48.8557 36.3219 48.8591C36.3139 48.8625 36.3052 48.8641 36.2965 48.8636H36.0768C36.0603 48.8626 36.0446 48.8556 36.0329 48.8438C36.0212 48.8321 36.0141 48.8165 36.0131 48.7999V47.774H35.5737V48.7999C35.5744 48.8081 35.5732 48.8164 35.5701 48.824C35.5671 48.8316 35.5623 48.8384 35.5561 48.8439C35.5505 48.8505 35.5434 48.8557 35.5354 48.8591C35.5274 48.8625 35.5187 48.8641 35.51 48.8636H35.2903C35.2806 48.8655 35.2706 48.8651 35.261 48.8624C35.2515 48.8598 35.2427 48.8549 35.2354 48.8483L35.2486 48.8439ZM34.2753 48.5121C34.3255 48.4431 34.3531 48.3602 34.3544 48.2749C34.3544 48.2529 34.3544 48.22 34.3544 48.1738C34.3544 48.1277 34.3544 48.0925 34.3544 48.0706C34.3527 47.9903 34.3241 47.9129 34.2732 47.8509C34.2459 47.8199 34.212 47.7954 34.1739 47.7794C34.1359 47.7635 34.0947 47.7563 34.0535 47.7586C33.8667 47.7586 33.7657 47.875 33.7525 48.1079V48.2661C33.7657 48.4858 33.8667 48.6132 34.0535 48.6132C34.0959 48.6155 34.1382 48.6075 34.1768 48.5899C34.2154 48.5723 34.2492 48.5456 34.2753 48.5121ZM33.5438 48.7318C33.4416 48.6024 33.3866 48.442 33.3878 48.2771V48.0925C33.3863 47.9286 33.4405 47.769 33.5416 47.64C33.5925 47.5821 33.656 47.5365 33.7272 47.5068C33.7984 47.4772 33.8754 47.4641 33.9524 47.4686C34.0282 47.4654 34.1037 47.4793 34.1733 47.5094C34.2429 47.5394 34.3048 47.5848 34.3544 47.6422V47.0556C34.3544 47.047 34.3562 47.0384 34.3596 47.0305C34.363 47.0226 34.368 47.0154 34.3742 47.0095C34.3801 47.0041 34.3871 46.9999 34.3946 46.9973C34.4022 46.9946 34.4102 46.9935 34.4181 46.9941H34.6378C34.6462 46.9934 34.6546 46.9944 34.6625 46.997C34.6704 46.9997 34.6777 47.0039 34.684 47.0095C34.6899 47.0155 34.6946 47.0227 34.6976 47.0307C34.7006 47.0386 34.702 47.0471 34.7015 47.0556V48.8131C34.7022 48.8213 34.701 48.8295 34.698 48.8372C34.6949 48.8448 34.6901 48.8516 34.684 48.8571C34.6783 48.8636 34.6712 48.8689 34.6632 48.8723C34.6552 48.8757 34.6465 48.8773 34.6378 48.8768H34.4181C34.4016 48.8758 34.386 48.8687 34.3743 48.857C34.3625 48.8453 34.3555 48.8297 34.3544 48.8131V48.7143C34.3028 48.7721 34.2399 48.8187 34.1695 48.8511C34.0991 48.8835 34.0227 48.9011 33.9452 48.9027C33.8678 48.9044 33.7908 48.8901 33.719 48.8607C33.6473 48.8313 33.5824 48.7874 33.5284 48.7318H33.5438ZM32.7024 48.5495C32.7579 48.4756 32.7866 48.3849 32.7837 48.2925C32.7837 48.2749 32.7837 48.2419 32.7837 48.1914C32.7837 48.1409 32.7837 48.1057 32.7837 48.0881C32.7862 47.9958 32.7576 47.9052 32.7024 47.8311C32.675 47.8005 32.641 47.7766 32.6028 47.7614C32.5647 47.7461 32.5236 47.7399 32.4827 47.7432C32.4418 47.7402 32.4008 47.7466 32.3627 47.7618C32.3246 47.7771 32.2905 47.8007 32.263 47.8311C32.2078 47.9052 32.1791 47.9958 32.1817 48.0881V48.2925C32.1788 48.3849 32.2074 48.4756 32.263 48.5495C32.2909 48.5792 32.3252 48.6023 32.3632 48.6171C32.4012 48.6319 32.442 48.6381 32.4827 48.6352C32.5263 48.6381 32.57 48.6302 32.6099 48.6122C32.6497 48.5942 32.6845 48.5666 32.7112 48.5319L32.7024 48.5495ZM32.0081 48.745C31.9502 48.6875 31.9043 48.619 31.873 48.5436C31.8417 48.4682 31.8256 48.3873 31.8258 48.3056V48.075C31.8257 47.9931 31.8419 47.9121 31.8736 47.8366C31.9053 47.7611 31.9518 47.6928 32.0103 47.6356C32.1439 47.5235 32.3153 47.4669 32.4893 47.4774C32.6619 47.4671 32.8319 47.5238 32.9638 47.6356C33.0223 47.6928 33.0688 47.7611 33.1005 47.8366C33.1322 47.9121 33.1485 47.9931 33.1483 48.075C33.1483 48.0947 33.1483 48.1343 33.1483 48.1914C33.1483 48.2485 33.1483 48.2859 33.1483 48.3056C33.1485 48.3873 33.1325 48.4682 33.1012 48.5436C33.0699 48.619 33.0239 48.6875 32.966 48.745C32.8275 48.8477 32.6595 48.9032 32.4871 48.9032C32.3146 48.9032 32.1467 48.8477 32.0081 48.745ZM31.1404 48.5495C31.1961 48.4758 31.2241 48.3848 31.2195 48.2925C31.2214 48.2588 31.2214 48.225 31.2195 48.1914C31.2214 48.157 31.2214 48.1225 31.2195 48.0881C31.2229 47.9956 31.1942 47.9048 31.1382 47.8311C31.1109 47.8003 31.0769 47.7764 31.0387 47.7611C31.0006 47.7459 30.9594 47.7397 30.9185 47.7432C30.8776 47.7401 30.8365 47.7464 30.7984 47.7616C30.7603 47.7768 30.7262 47.8006 30.6988 47.8311C30.642 47.9045 30.6125 47.9954 30.6153 48.0881V48.2925C30.6121 48.3853 30.6416 48.4763 30.6988 48.5495C30.7575 48.6069 30.8364 48.6391 30.9185 48.6391C31.0006 48.6391 31.0795 48.6069 31.1382 48.5495H31.1404ZM30.4462 48.745C30.3878 48.6878 30.3416 48.6194 30.3103 48.5439C30.2789 48.4684 30.2631 48.3874 30.2638 48.3056V48.075C30.2637 47.9931 30.2799 47.9121 30.3116 47.8366C30.3433 47.7611 30.3898 47.6928 30.4483 47.6356C30.5857 47.5331 30.7526 47.4777 30.924 47.4777C31.0954 47.4777 31.2622 47.5331 31.3996 47.6356C31.4581 47.6928 31.5046 47.7611 31.5363 47.8366C31.568 47.9121 31.5843 47.9931 31.5841 48.075C31.5841 48.0947 31.5841 48.1343 31.5841 48.1914C31.5841 48.2485 31.5841 48.2859 31.5841 48.3056C31.5843 48.3873 31.5683 48.4682 31.537 48.5436C31.5057 48.619 31.4597 48.6875 31.4018 48.745C31.2636 48.8476 31.0961 48.9029 30.924 48.9029C30.7519 48.9029 30.5844 48.8476 30.4462 48.745ZM29.5234 48.4902C29.573 48.4231 29.6013 48.3428 29.6047 48.2595C29.6063 48.231 29.6063 48.2024 29.6047 48.1738C29.6063 48.146 29.6063 48.1181 29.6047 48.0903C29.6013 48.0064 29.573 47.9253 29.5234 47.8575C29.4965 47.8259 29.4627 47.801 29.4246 47.7846C29.3865 47.7682 29.3452 47.7608 29.3038 47.763C29.1126 47.763 29.0138 47.8794 29.0028 48.1123V48.1738C29.0028 48.4484 29.1038 48.5868 29.306 48.5868C29.3494 48.5891 29.3928 48.5807 29.4322 48.5623C29.4717 48.5439 29.506 48.5161 29.5322 48.4814L29.5234 48.4902ZM28.9325 49.3689C28.8488 49.3295 28.7774 49.2679 28.726 49.191C28.6914 49.1401 28.6709 49.081 28.6667 49.0196C28.6663 49.0115 28.6676 49.0033 28.6707 48.9958C28.6737 48.9882 28.6783 48.9813 28.6842 48.9757C28.6964 48.9652 28.7121 48.9597 28.7282 48.9603H28.9632C28.978 48.9592 28.9927 48.963 29.005 48.9713C29.0182 48.9828 29.0274 48.9982 29.0313 49.0152C29.0507 49.0606 29.0809 49.1006 29.1192 49.1317C29.1719 49.1681 29.2355 49.1852 29.2994 49.18C29.3418 49.1882 29.3857 49.1858 29.427 49.173C29.4683 49.1601 29.5058 49.1372 29.536 49.1062C29.5663 49.0753 29.5884 49.0374 29.6004 48.9958C29.6124 48.9542 29.6139 48.9103 29.6047 48.868V48.6879C29.4961 48.7958 29.3492 48.8563 29.1961 48.8563C29.043 48.8563 28.8961 48.7958 28.7875 48.6879C28.6887 48.558 28.6369 48.3985 28.6403 48.2353V48.1628V48.0925C28.6387 47.9293 28.6912 47.7702 28.7897 47.64C28.8402 47.5815 28.9036 47.5356 28.9749 47.5059C29.0462 47.4762 29.1234 47.4634 29.2005 47.4686C29.2855 47.4666 29.3698 47.4846 29.4466 47.5213C29.5143 47.5544 29.5737 47.6025 29.6201 47.6619V47.5609C29.6198 47.5519 29.6214 47.5429 29.6248 47.5346C29.6282 47.5263 29.6334 47.5188 29.6399 47.5125C29.6459 47.5066 29.6532 47.502 29.6611 47.4989C29.6691 47.4959 29.6775 47.4946 29.686 47.495H29.9057C29.9142 47.4946 29.9227 47.4959 29.9306 47.4989C29.9386 47.502 29.9458 47.5066 29.9518 47.5125C29.9634 47.526 29.9697 47.5432 29.9694 47.5609V48.8307C29.9751 48.9133 29.9637 48.9961 29.9357 49.074C29.9077 49.152 29.8638 49.2232 29.8069 49.2833C29.7396 49.3415 29.6615 49.3858 29.577 49.4137C29.4926 49.4416 29.4034 49.4525 29.3147 49.4458C29.1858 49.4511 29.0576 49.4247 28.9413 49.3689H28.9325Z" fill="black"/>
<path d="M71.5568 36.7124H63.5579V48.9316H71.5568L68.9865 43.1933L71.5568 36.7124ZM0.458496 36.7124H8.45742V48.9316H0.458496L3.02667 43.1933L0.458496 36.7124Z" fill="#2C72C6"/>
<path d="M67.6045 32.5186L63.5601 36.6927V48.9118L67.6045 44.8937V32.5186ZM4.49414 32.5186L8.54742 36.8706V48.925L4.49414 44.8827V32.5186Z" fill="#3D597A"/>
<path d="M4.4043 44.8168H67.596L67.5894 32.4438H4.4043V44.8168Z" fill="#4385F4"/>
<path opacity="0.5" d="M36.769 53.9273C38.9456 54.0255 41.1237 53.7673 43.2169 53.1628C42.4678 52.1961 43.7047 51.2339 44.8888 50.3068C46.13 49.3841 47.3735 48.4636 47.3735 48.4592C47.3735 48.4548 45.9104 49.9597 46.0553 51.2471C46.1033 51.5389 46.0951 51.8371 46.0312 52.1258C46.3695 51.972 46.7027 51.8095 47.0308 51.6381C46.152 50.8077 47.1472 49.6192 48.0941 48.49C49.0959 47.352 50.1064 46.2337 50.1064 46.2293C50.1064 46.225 48.9948 47.9671 49.3683 49.2347C49.4671 49.5168 49.5132 49.8147 49.5045 50.1135C49.7989 49.8938 50.0867 49.6873 50.3657 49.4544C49.3859 48.7646 50.102 47.4069 50.8051 46.1349C51.5498 44.8387 52.3187 43.5843 52.3187 43.5821C52.3187 43.5799 51.5696 45.4714 52.1583 46.6819C52.3046 46.9482 52.4028 47.2383 52.4483 47.5387C52.6922 47.2817 52.9295 47.0202 53.1557 46.7544C52.11 46.2162 52.5186 44.764 52.9624 43.3888C53.4567 41.9915 53.9884 40.68 53.9818 40.6602C54.0103 40.6602 53.5863 42.6264 54.375 43.7359C54.5648 43.9786 54.7133 44.251 54.8144 44.5421C55.0033 44.2492 55.1849 43.9563 55.3592 43.6634C54.2432 43.2767 54.3882 41.785 54.5859 40.368C54.8254 38.929 55.122 37.5714 55.122 37.556C55.122 37.5406 55.0605 39.5332 56.0227 40.5218C56.2483 40.7355 56.4382 40.9839 56.5851 41.2578C56.673 41.0578 56.7587 40.8557 56.8399 40.6536C56.9037 40.4976 56.963 40.3416 57.0223 40.1835C55.8997 39.9638 55.7986 38.5622 55.7679 37.222C55.7679 35.8556 55.8491 34.5616 55.8557 34.5484C55.8623 34.5352 56.0754 36.385 57.1365 37.1847C57.3836 37.3571 57.6016 37.5677 57.7824 37.8086C57.8923 37.3846 57.9911 36.9606 58.079 36.5322C56.9652 36.5037 56.662 35.2031 56.4445 33.9575C56.227 32.7118 56.1545 31.4859 56.1655 31.4728C56.1765 31.4596 56.6181 33.1424 57.7231 33.7422C57.9856 33.8727 58.2252 34.0448 58.4327 34.2518C58.4854 33.7685 58.525 33.2874 58.5513 32.8041C57.4814 32.9315 57.0267 31.7693 56.662 30.6379C56.4345 29.8916 56.2453 29.1342 56.0952 28.3685C56.1106 28.3685 56.7191 29.8624 57.8329 30.2732C58.1001 30.3604 58.351 30.491 58.5755 30.6599C58.5623 30.2205 58.5425 29.8009 58.5096 29.3747C58.5096 29.2737 58.4942 29.1748 58.4854 29.0737C57.521 29.3418 56.9212 28.307 56.4621 27.3162C56.0029 26.3254 55.6756 25.2643 55.6756 25.2621C55.6756 25.2599 56.4225 26.5803 57.51 26.8197C57.7648 26.865 58.0105 26.9518 58.2372 27.0768C58.1449 26.5143 58.0395 25.9541 57.9142 25.3961C57.0684 25.7388 56.3984 24.8667 55.8711 23.9967C55.52 23.3937 55.201 22.7726 54.9155 22.1359C54.9264 22.1359 55.7525 23.3135 56.7828 23.3882C57.0078 23.3963 57.2301 23.4392 57.4419 23.5156C57.272 22.9297 57.0853 22.3512 56.8817 21.78C56.1633 22.1425 55.4735 21.4263 54.9045 20.6816C54.5065 20.1367 54.1398 19.5697 53.806 18.9834C53.817 18.9834 54.7133 20.0423 55.6624 19.9808C55.8384 19.9648 56.0158 19.9729 56.1897 20.0049C55.9568 19.4425 55.7071 18.8801 55.4405 18.3177L55.3944 18.2079C54.799 18.5725 54.1092 17.9882 53.5182 17.3291C53.081 16.8281 52.6703 16.3045 52.288 15.7605C52.3011 15.7605 53.2634 16.7249 54.1158 16.5558C54.2931 16.5165 54.4757 16.5069 54.6562 16.5272C54.0636 15.274 53.3998 14.0556 52.668 12.8782C53.4963 14.0931 54.2344 15.2948 54.8869 16.4613C54.9636 16.248 55.0717 16.0473 55.2076 15.866C55.4801 15.5013 55.4867 14.9103 55.39 14.405C55.3258 14.0911 55.2332 13.7838 55.1132 13.4867C55.5513 14.1935 55.9031 14.9502 56.1611 15.7407C56.4972 16.8546 56.4884 17.9113 55.7217 18.0431C56.0293 18.6604 56.3105 19.2778 56.5719 19.8951C56.6795 19.7226 56.8087 19.5646 56.9564 19.4249C57.3079 19.0932 57.3958 18.5 57.3826 17.9882C57.3674 17.6684 57.3188 17.351 57.2376 17.0413C57.5928 17.7989 57.8511 18.5983 58.0065 19.4205C58.1954 20.5498 58.0526 21.6021 57.2661 21.6878C57.4661 22.2546 57.6484 22.8192 57.8154 23.3882C57.9465 23.2454 58.094 23.1186 58.2547 23.0103C59.1006 22.4545 58.9336 20.7694 58.9138 20.642C59.1833 21.4536 59.3444 22.2971 59.3927 23.1509C59.4389 24.3152 59.1577 25.3742 58.336 25.3829C58.336 25.3829 58.336 25.3829 58.336 25.3961C58.4473 25.9146 58.5455 26.4367 58.6304 26.9625C58.7859 26.8365 58.9555 26.7289 59.1357 26.6418C60.1089 26.1892 60.1595 24.4317 60.1441 24.2999C60.3199 25.1743 60.3775 26.0684 60.3154 26.9581C60.2078 28.173 59.7662 29.2451 58.8962 29.1331C58.9358 29.6208 58.9643 30.1085 58.9797 30.6006C59.1653 30.4874 59.3637 30.3967 59.5707 30.3304C60.6274 30.0074 60.9306 28.2675 60.9481 28.0478C61.0138 28.9817 60.9532 29.9202 60.768 30.8379C60.5044 32.0923 59.8409 33.1973 58.9534 32.9205C58.927 33.3599 58.8918 33.8212 58.8413 34.2694C59.0617 34.167 59.2943 34.0932 59.5333 34.0497C60.7065 33.8586 61.2689 32.0176 61.2909 31.8396C61.2302 32.837 61.0313 33.8211 60.6999 34.7637C60.2364 36.0819 59.3576 37.1649 58.4525 36.686C58.3668 37.0946 58.2701 37.5054 58.1625 37.9119C58.4225 37.8273 58.6932 37.7799 58.9665 37.7713C60.2451 37.7361 61.1195 35.7941 61.1459 35.682C60.9377 36.7331 60.5781 37.7484 60.0782 38.6962C59.3752 40.0341 58.2547 41.0842 57.3738 40.3724C57.2376 40.7327 57.0911 41.0901 56.9344 41.4445C57.2302 41.3859 57.533 41.3718 57.8329 41.4028C59.195 41.5521 60.4363 39.5837 60.4495 39.509C60.0664 40.5931 59.5228 41.6136 58.8369 42.5364C57.8637 43.8545 56.4884 44.8058 55.691 43.8787C55.5123 44.1804 55.3277 44.4733 55.1373 44.7574C55.4399 44.7402 55.7434 44.7676 56.0381 44.8387C57.3958 45.1836 58.9863 43.325 58.9599 43.3009C58.3976 44.3452 57.6748 45.2949 56.818 46.1151C55.6185 47.2926 54.074 48.0374 53.4303 46.9939C53.1997 47.2641 52.9602 47.5277 52.712 47.7891C53.0193 47.8171 53.3208 47.8912 53.6061 48.0088C54.8452 48.5163 56.6312 47.0927 56.7938 46.9236C56.0534 47.8642 55.1776 48.6897 54.1949 49.3731C52.7471 50.3683 51.0753 50.8275 50.6051 49.7334C50.3195 49.9641 50.0252 50.186 49.7264 50.4035C50.0343 50.4757 50.3303 50.5918 50.6051 50.7484C51.7651 51.436 53.817 50.309 54.0235 50.1662C53.1033 50.9835 52.0668 51.6594 50.9478 52.172C49.298 52.9189 47.5053 53.0815 47.2285 51.9523C46.8946 52.1258 46.554 52.295 46.2091 52.4532C46.4993 52.5722 46.7714 52.7312 47.0176 52.9255C48.0699 53.7867 50.3481 53.0397 50.6051 52.9255C49.5164 53.5792 48.3361 54.0664 47.1033 54.3711C45.2886 54.8104 43.4301 54.6479 43.3422 53.5165C41.2222 54.1347 39.0144 54.3967 36.8086 54.292L36.769 53.9273Z" fill="#4385F4"/>
<path d="M36.4024 4.11255L37.6986 6.73565L40.5963 7.15526L38.4982 9.20717L38.9947 12.0873L36.4024 10.7274L33.8122 12.0873L34.3065 9.20717L32.2085 7.16624L35.1062 6.74663L36.4024 4.11255Z" fill="#FFA829"/>
<path d="M28.3684 9.22484L27.5928 7.65186L26.8151 9.22484L25.0752 9.47748L26.334 10.7012L26.0374 12.4301L27.5928 11.6129L29.1461 12.4301L28.8495 10.7012L30.1083 9.47748L28.3684 9.22484Z" fill="#F8B64C"/>
<path d="M47.7296 9.47748L45.9897 9.22484L45.2142 7.65186L44.4365 9.22484L42.6987 9.47748L43.9554 10.7012L43.6588 12.4301L45.2142 11.6129L46.7674 12.4301L46.4708 10.7012L47.7296 9.47748Z" fill="#F8B64C"/>
<path d="M24.0468 13.3265L23.581 12.3818L23.1153 13.3265L22.0718 13.4781L22.8253 14.2119L22.6474 15.2488L23.581 14.7611L24.5125 15.2488L24.3346 14.2119L25.0903 13.4781L24.0468 13.3265Z" fill="#FFD15C"/>
<path d="M50.7324 13.4781L49.6889 13.3265L49.2231 12.3818L48.7574 13.3265L47.7139 13.4781L48.4696 14.2119L48.2917 15.2488L49.2231 14.7611L50.1568 15.2488L49.9789 14.2119L50.7324 13.4781Z" fill="#FFD15C"/>
<path d="M18.4161 37.6482V35.4711H17.645V35.0164H19.7387V35.4711H18.9654V37.6482H18.4161Z" fill="white"/>
<path d="M22.3531 36.3345C22.3531 37.1693 21.8632 37.6944 21.0833 37.6944C20.3034 37.6944 19.8135 37.1693 19.8135 36.3345C19.8135 35.4997 20.3034 34.9702 21.0833 34.9702C21.8632 34.9702 22.3531 35.4953 22.3531 36.3345ZM20.3759 36.3345C20.3759 36.8837 20.6505 37.233 21.0833 37.233C21.5161 37.233 21.7885 36.8837 21.7885 36.3345C21.7885 35.7853 21.5139 35.4316 21.0833 35.4316C20.6527 35.4316 20.3759 35.7897 20.3759 36.3345Z" fill="white"/>
<path d="M23.805 35.0164C23.9257 35.0091 24.0465 35.0274 24.1597 35.0699C24.2728 35.1125 24.3758 35.1784 24.4618 35.2634C24.5478 35.3483 24.6149 35.4505 24.6588 35.5631C24.7028 35.6757 24.7225 35.7963 24.7167 35.9171C24.7201 36.0397 24.6978 36.1616 24.6512 36.2751C24.6046 36.3885 24.5347 36.491 24.4462 36.5758C24.3576 36.6607 24.2523 36.726 24.1369 36.7677C24.0216 36.8094 23.8988 36.8264 23.7764 36.8178H23.258V37.6482H22.7065V35.012L23.805 35.0164ZM23.258 36.3872H23.6556C23.7196 36.3916 23.7838 36.3828 23.8443 36.3613C23.9047 36.3399 23.9601 36.3062 24.007 36.2624C24.0539 36.2186 24.0913 36.1657 24.1168 36.1068C24.1424 36.048 24.1556 35.9845 24.1556 35.9204C24.1556 35.8562 24.1424 35.7928 24.1168 35.7339C24.0913 35.6751 24.0539 35.6221 24.007 35.5784C23.9601 35.5346 23.9047 35.5009 23.8443 35.4794C23.7838 35.458 23.7196 35.4491 23.6556 35.4535H23.2558L23.258 36.3872Z" fill="white"/>
<path d="M26.918 37.6482H26.3995L25.7031 35.012H26.2743L26.6873 36.9189H26.7027L27.1948 35.012H27.6584L28.1527 36.9189H28.1659L28.5811 35.012H29.1523L28.4536 37.6482H27.9352L27.4343 35.8512H27.4189L26.918 37.6482Z" fill="white"/>
<path d="M31.1999 37.6482H29.4424V35.012H31.1999V35.4667H30.007V36.1016H31.134V36.5234H30.007V37.1825H31.1999V37.6482Z" fill="white"/>
<path d="M31.5889 37.6482V35.012H32.751C33.2453 35.012 33.5551 35.2668 33.5551 35.671C33.5545 35.8096 33.5044 35.9434 33.4137 36.0481C33.323 36.1529 33.1978 36.2218 33.0608 36.2422V36.2554C33.2265 36.2605 33.3838 36.3298 33.4994 36.4487C33.6149 36.5676 33.6798 36.7267 33.6803 36.8925C33.6803 37.3561 33.3332 37.646 32.7708 37.646L31.5889 37.6482ZM32.1403 36.1104H32.5533C32.8455 36.1104 33.0147 35.9808 33.0147 35.7589C33.0147 35.537 32.8653 35.4272 32.6082 35.4272H32.1403V36.1104ZM32.6302 37.2374C32.9487 37.2374 33.1201 37.1034 33.1201 36.8508C33.1201 36.5981 32.9422 36.4729 32.617 36.4729H32.1403V37.2374H32.6302Z" fill="white"/>
<path d="M35.8133 35.0164C36.602 35.0164 37.0677 35.4865 37.0677 36.3213C37.0677 37.1561 36.602 37.6395 35.8133 37.6395H34.7983V35.0032L35.8133 35.0164ZM35.3498 37.1913H35.7474C36.2395 37.1913 36.5053 36.8925 36.5053 36.3235C36.5053 35.7545 36.2329 35.4711 35.7474 35.4711H35.3498V37.1913Z" fill="white"/>
<path d="M39.1638 37.6482H37.4194V35.012H39.1638V35.4667H37.9709V36.1016H39.0957V36.5234H37.9709V37.1825H39.1638V37.6482Z" fill="white"/>
<path d="M39.9875 36.8991C40.0138 37.1188 40.2401 37.2572 40.5323 37.2572C40.8245 37.2572 41.0266 37.1166 41.0266 36.9233C41.0266 36.7299 40.8992 36.6574 40.5872 36.5871L40.2445 36.5124C39.759 36.4092 39.5195 36.1609 39.5195 35.7765C39.5195 35.291 39.9391 34.9702 40.5257 34.9702C41.1123 34.9702 41.5253 35.2866 41.5341 35.7633H41.0178C40.998 35.5436 40.7981 35.4052 40.5279 35.4052C40.2577 35.4052 40.0753 35.5348 40.0753 35.7303C40.0753 35.9259 40.2028 35.983 40.5037 36.0533L40.8245 36.1192C41.3517 36.2334 41.5802 36.4597 41.5802 36.8595C41.5802 37.3714 41.1672 37.6944 40.5147 37.6944C39.8622 37.6944 39.4778 37.3934 39.4624 36.8991H39.9875Z" fill="white"/>
<path d="M41.9185 37.6482V35.012H42.4677V37.6482H41.9185Z" fill="white"/>
<path d="M44.0913 37.6944C43.3048 37.6944 42.8237 37.1803 42.8237 36.3235C42.8237 35.4667 43.3049 34.9702 44.0782 34.9702C44.6933 34.9702 45.1568 35.3349 45.2359 35.8666H44.6823C44.6473 35.7355 44.5685 35.6205 44.459 35.5405C44.3494 35.4606 44.2158 35.4206 44.0804 35.4272C43.641 35.4272 43.3861 35.7567 43.3861 36.3169C43.3861 36.8771 43.6629 37.2352 44.1001 37.2352C44.1773 37.2425 44.2552 37.2338 44.329 37.2099C44.4027 37.1859 44.4708 37.1471 44.5291 37.0959C44.5873 37.0447 44.6344 36.9821 44.6676 36.912C44.7007 36.8418 44.7192 36.7657 44.7219 36.6882V36.6464H44.1616V36.2466H45.2601V36.5432C45.2601 37.2594 44.8207 37.6944 44.0913 37.6944Z" fill="white"/>
<path d="M45.6226 37.6482V35.012H46.0817L47.3098 36.7255H47.3252V35.012H47.8524V37.6482H47.3955L46.1652 35.9259H46.1498V37.6482H45.6226Z" fill="white"/>
<path d="M48.2896 37.6482V35.012H48.841V37.6482H48.2896Z" fill="white"/>
<path d="M49.2783 37.6482V35.012H49.7375L50.9677 36.7255H50.9721V35.012H51.4994V37.6482H51.0446L49.8122 35.9259H49.7968V37.6482H49.2783Z" fill="white"/>
<path d="M53.1314 37.6944C52.3449 37.6944 51.8638 37.1803 51.8638 36.3235C51.8638 35.4667 52.3449 34.9702 53.1182 34.9702C53.7333 34.9702 54.1969 35.3349 54.2738 35.8666H53.7224C53.687 35.7357 53.6081 35.6209 53.4986 35.541C53.3892 35.4611 53.2558 35.421 53.1204 35.4272C52.681 35.4272 52.4262 35.7567 52.4262 36.3169C52.4262 36.8771 52.703 37.2352 53.1402 37.2352C53.2173 37.2425 53.295 37.2338 53.3687 37.2098C53.4423 37.1859 53.5103 37.147 53.5683 37.0958C53.6264 37.0445 53.6733 36.9819 53.7062 36.9118C53.7391 36.8417 53.7573 36.7656 53.7597 36.6882V36.6464H53.1863V36.2466H54.2848V36.5432C54.2979 37.2594 53.8651 37.6944 53.1314 37.6944Z" fill="white"/>
<path d="M26.8809 40.8139C26.8809 39.9659 27.3642 39.4518 28.1265 39.4518C28.4102 39.4352 28.6892 39.5291 28.9051 39.7138C29.121 39.8986 29.2569 40.1598 29.2843 40.4426H28.7482C28.7287 40.2926 28.6545 40.1551 28.5397 40.0566C28.4249 39.958 28.2777 39.9054 28.1265 39.9088C27.7113 39.9088 27.4433 40.2559 27.4433 40.8117C27.4433 41.3675 27.7069 41.7212 28.1243 41.7212C28.2718 41.73 28.4171 41.6832 28.5318 41.5901C28.6465 41.497 28.7221 41.3643 28.7438 41.2182H29.2799C29.2184 41.8047 28.768 42.1782 28.1221 42.1782C27.362 42.176 26.8809 41.6619 26.8809 40.8139Z" fill="white"/>
<path d="M32.0787 40.8162C32.0787 41.6532 31.5888 42.1761 30.8089 42.1761C30.029 42.1761 29.5391 41.6532 29.5391 40.8162C29.5391 39.9792 30.029 39.4519 30.8089 39.4519C31.5888 39.4519 32.0787 39.977 32.0787 40.8162ZM30.1015 40.8162C30.1015 41.3654 30.3761 41.7147 30.8089 41.7147C31.2417 41.7147 31.5141 41.3654 31.5141 40.8162C31.5141 40.267 31.2395 39.9133 30.8089 39.9133C30.3783 39.9133 30.1015 40.2626 30.1015 40.8162Z" fill="white"/>
<path d="M35.2202 42.1299H34.7303V40.3548H34.715L34.001 42.1124H33.6539L32.9399 40.3548H32.9245V42.1299H32.4346V39.4937H33.0717L33.8208 41.3588H33.8362L34.5853 39.4937H35.2224L35.2202 42.1299Z" fill="white"/>
<path d="M36.7559 39.498C36.8767 39.4905 36.9977 39.5085 37.111 39.5509C37.2243 39.5933 37.3274 39.6592 37.4134 39.7443C37.4995 39.8293 37.5667 39.9316 37.6105 40.0444C37.6543 40.1572 37.6738 40.2779 37.6676 40.3988C37.671 40.5212 37.6487 40.6429 37.6022 40.7562C37.5558 40.8695 37.4862 40.9718 37.3978 41.0566C37.3095 41.1414 37.2044 41.2069 37.0894 41.2487C36.9743 41.2905 36.8517 41.3078 36.7296 41.2995H36.2089V42.1299H35.6597V39.4937L36.7559 39.498ZM36.2089 40.8689H36.6087C36.6727 40.8733 36.7369 40.8645 36.7974 40.843C36.8578 40.8215 36.9132 40.7879 36.9601 40.7441C37.007 40.7003 37.0444 40.6474 37.07 40.5885C37.0955 40.5297 37.1087 40.4662 37.1087 40.4021C37.1087 40.3379 37.0955 40.2745 37.07 40.2156C37.0444 40.1568 37.007 40.1038 36.9601 40.06C36.9132 40.0163 36.8578 39.9826 36.7974 39.9611C36.7369 39.9396 36.6727 39.9308 36.6087 39.9352H36.2089V40.8689Z" fill="white"/>
<path d="M39.269 41.5016H38.3441L38.1442 42.1409H37.5708L38.4825 39.5046H39.1306L40.0467 42.1409H39.4601L39.269 41.5016ZM38.4627 41.0908H39.1504L38.8142 40.0121H38.8011L38.4627 41.0908Z" fill="white"/>
<path d="M40.3237 42.1299V39.4937H40.7829L42.0131 41.2072H42.0263V39.4937H42.5536V42.1299H42.0988L40.8664 40.4032H40.851V42.1255L40.3237 42.1299Z" fill="white"/>
<path d="M43.7398 42.1299V41.1479L42.8237 39.498H43.4235L44.0123 40.6207H44.0254L44.6164 39.498H45.2074L44.2891 41.1479V42.1299H43.7398Z" fill="white"/>
</g>
<defs>
<clipPath id="clip0_68_2642">
<rect width="71.9925" height="61.7" fill="white" transform="translate(0.00390625 0.199951)"/>
</clipPath>
</defs>
</svg>
