<svg width="30" height="25" viewBox="0 0 43 37" fill="none" xmlns="http://www.w3.org/2000/svg">
<path d="M29.0994 3.8924C35.0085 3.8924 43.0707 13.8682 42.2566 22.9966C41.4424 32.125 33.4364 34.8449 25.5361 35.5482C12.3734 36.7201 3.50081 35.5482 1.25707 22.9966C-0.986671 10.445 14.8108 1.6172 27.8102 1M14.4142 23.6634C20.177 30.1195 23.5443 29.7075 29.6859 23.6634M14.1894 14.5299C11.1415 15.7561 15.1927 16.8551 15.7035 16.5C16.2204 16.1406 17.2374 13.3037 14.1894 14.5299ZM29.6859 14.5299C26.638 15.7561 30.6892 16.8551 31.2 16.5C31.7169 16.1406 32.7339 13.3037 29.6859 14.5299Z" stroke="#EA9A4A" stroke-linecap="round"/>
</svg>
