<svg width="30" height="25" viewBox="0 0 49 50" fill="none" xmlns="http://www.w3.org/2000/svg">
<path d="M27.4658 20.2921C26.8784 20.0634 21.5387 0.736358 20.08 1.00273C18.6213 1.2691 23.2273 21.5353 22.369 21.6737C20.414 21.989 0.718029 19.5596 1.04667 19.971C4.65198 24.4843 19.7268 25.1634 19.6479 25.8349C19.3843 28.0772 1.83082 35.7495 3.2349 35.7733C8.24572 35.8582 19.2533 31.8067 19.9274 32.664C20.6015 33.5213 17.8082 49.8547 18.9972 48.9649C20.1861 48.0752 22.4495 32.8228 25.3349 32.8717C28.4486 32.9245 30.6429 49.1642 32.6763 48.5608C34.7096 47.9573 29.6214 31.6086 30.4317 31.4901C34.3408 30.9183 42.4841 39.5435 43.1139 39.4082C43.7438 39.2729 35.286 29.408 35.3421 28.4855C35.3983 27.5629 48.5357 20.3885 48.0282 19.3985C47.5208 18.4085 32.6428 22.7609 32.1326 22.4506C31.6225 22.1402 35.3363 6.15837 34.2397 5.90289C33.1431 5.64742 28.0533 20.5209 27.4658 20.2921Z" stroke="#EA9A4A" stroke-linecap="round"/>
</svg>
