<svg width="19" height="18" viewBox="0 0 19 18" fill="none" xmlns="http://www.w3.org/2000/svg">
<path d="M17.3 0H5.30005C5.10114 0 4.91037 0.0790201 4.76972 0.21967C4.62907 0.36032 4.55005 0.55109 4.55005 0.75V4.5H0.800049C0.601139 4.5 0.410369 4.57902 0.269719 4.71967C0.129069 4.86032 0.0500488 5.05109 0.0500488 5.25V17.25C0.0500488 17.4489 0.129069 17.6397 0.269719 17.7803C0.410369 17.921 0.601139 18 0.800049 18H12.8C12.9989 18 13.1897 17.921 13.3303 17.7803C13.471 17.6397 13.55 17.4489 13.55 17.25V13.5H17.3C17.4989 13.5 17.6897 13.421 17.8303 13.2803C17.971 13.1397 18.05 12.9489 18.05 12.75V0.75C18.05 0.55109 17.971 0.36032 17.8303 0.21967C17.6897 0.0790201 17.4989 0 17.3 0ZM12.05 16.5H1.55005V6H12.05V16.5ZM16.55 12H13.55V5.25C13.55 5.05109 13.471 4.86032 13.3303 4.71967C13.1897 4.57902 12.9989 4.5 12.8 4.5H6.05005V1.5H16.55V12Z" fill="black"/>
</svg>
