<svg width="40" height="40" viewBox="0 0 40 40" fill="none" xmlns="http://www.w3.org/2000/svg">
<path d="M20.0035 6H19.9965C12.2773 6 6.00002 12.279 6.00002 20C5.99522 22.9488 6.92865 25.8226 8.66527 28.2057L6.92052 33.4067L12.3018 31.6865C14.5844 33.2009 17.2642 34.0059 20.0035 34C27.7228 34 34 27.7192 34 20C34 12.2807 27.7228 6 20.0035 6ZM28.1498 25.7697C27.812 26.7235 26.4715 27.5145 25.4023 27.7455C24.6708 27.9012 23.7153 28.0255 20.4988 26.692C16.3845 24.9875 13.735 20.8067 13.5285 20.5355C13.3308 20.2642 11.866 18.3217 11.866 16.3127C11.866 14.3037 12.8863 13.3255 13.2975 12.9055C13.6353 12.5607 14.1935 12.4032 14.729 12.4032C14.9023 12.4032 15.058 12.412 15.198 12.419C15.6093 12.4365 15.8158 12.461 16.087 13.1102C16.4248 13.924 17.2473 15.933 17.3453 16.1395C17.445 16.346 17.5448 16.626 17.4048 16.8972C17.2735 17.1772 17.158 17.3015 16.9515 17.5395C16.745 17.7775 16.549 17.9595 16.3425 18.215C16.1535 18.4372 15.94 18.6752 16.178 19.0865C16.416 19.489 17.2385 20.8312 18.4495 21.9092C20.0123 23.3005 21.2793 23.745 21.7325 23.934C22.0703 24.074 22.4728 24.0407 22.7195 23.7782C23.0328 23.4405 23.4195 22.8805 23.8133 22.3292C24.0933 21.9337 24.4468 21.8847 24.8178 22.0247C25.1958 22.156 27.196 23.1447 27.6073 23.3495C28.0185 23.556 28.2898 23.654 28.3895 23.8272C28.4875 24.0005 28.4875 24.8142 28.1498 25.7697Z" fill="#EA9A4A"/>
</svg>
