<svg xmlns="http://www.w3.org/2000/svg" width="256" height="256" fill="none" viewBox="0 0 256 256" id="x">
  <path fill="#353535" d="M92.25 88.125L152.062 167.875H163.75L103.938 88.125H92.25Z"></path>
  <path fill="#353535" fill-rule="evenodd" d="M30 79C30 64.7674 36.068 51.9521 45.7581 43L83.7572 80.4684C81.0832 81.8785 79.9802 85.5153 82.02 88.235L116.628 134.379L86.382 169.299C84.8904 171.021 85.0773 173.626 86.7993 175.118C88.5214 176.61 91.1265 176.423 92.618 174.701L121.693 141.133L146.37 174.035C147.357 175.351 148.905 176.125 150.55 176.125H169.8C173.056 176.125 175.255 173.314 175.017 170.454L214.109 209C205.124 219.411 191.831 226 177 226H79C51.938 226 30 204.062 30 177V79Z" clip-rule="evenodd"></path>
  <path fill="#000" d="M214.109 209C221.519 200.415 226 189.231 226 177V79C226 51.938 204.062 30 177 30H79C66.1706 30 54.4928 34.9305 45.7581 43L83.7572 80.4684C84.4698 80.0927 85.294 79.875 86.2 79.875H105.45C107.095 79.875 108.643 80.6493 109.63 81.965L134.331 114.899L163.38 81.3021C164.87 79.5787 167.475 79.3896 169.198 80.8796C170.921 82.3696 171.11 84.9746 169.62 86.6979L139.397 121.654L173.98 167.765C174.61 168.605 174.94 169.532 175.017 170.454L214.109 209Z"></path>
</svg>
